<?xml version="1.0" encoding="iso-8859-1"?>
<!-- Generator: Adobe Illustrator 18.0.0, SVG Export Plug-In . SVG Version: 6.00 Build 0)  -->
<!DOCTYPE svg PUBLIC "-//W3C//DTD SVG 1.1//EN" "http://www.w3.org/Graphics/SVG/1.1/DTD/svg11.dtd">
<svg xmlns="http://www.w3.org/2000/svg" xmlns:xlink="http://www.w3.org/1999/xlink" version="1.1" id="Capa_1" x="0px" y="0px" viewBox="0 0 52.308 52.308" style="enable-background:new 0 0 52.308 52.308;" xml:space="preserve" width="512px" height="512px">
<path d="M49.575,0.169c-0.458-0.307-1.081-0.185-1.388,0.274l-3.584,5.351C40.864,4.198,34.7,3.308,28.664,3.308  c-3.968,0-7.775,0.381-11.098,1.08c-1.534-2.125-4.024-3.516-6.839-3.516c-4.652,0-8.437,3.785-8.437,8.438s3.785,8.438,8.437,8.438  c0.938,0,1.856-0.159,2.74-0.465c0.777,1.09,1.623,2.234,2.507,3.4c0.086,0.19,0.222,0.366,0.403,0.529  c3.352,4.385,7.129,8.953,9.446,11.709c0.612,0.729,1.435,1.222,2.341,1.425V45.32c-3.2,0.071-11,0.545-11,3.488  c0,3.331,9.996,3.5,12,3.5s12-0.169,12-3.5c0-2.943-7.8-3.417-11-3.488V34.308c0.891-0.228,1.693-0.732,2.281-1.468  c3.533-4.417,6.462-8.232,8.81-11.465c0.268-0.221,0.443-0.464,0.531-0.732c3.893-5.42,6.012-9.064,6.328-10.888  c0.032-0.145,0.051-0.293,0.051-0.447c0-0.962-0.654-1.824-1.782-2.575l3.467-5.176C50.156,1.098,50.033,0.477,49.575,0.169z   M18.568,6.209c3.029-0.584,6.562-0.901,10.096-0.901c6.781,0,11.901,1.078,14.801,2.186l-2.61,3.897  c-2.805,0.521-6.801,0.917-12.191,0.917c-3.616,0-6.995-0.192-9.863-0.561c0.021-0.068,0.028-0.138,0.047-0.206  c0.071-0.256,0.129-0.515,0.175-0.776c0.02-0.113,0.043-0.225,0.058-0.339c0.05-0.369,0.082-0.74,0.082-1.116  c0-0.274-0.015-0.546-0.041-0.818C19.107,8.326,19.078,8.164,19.052,8c-0.016-0.099-0.026-0.199-0.046-0.298  c-0.04-0.207-0.093-0.41-0.148-0.612c-0.014-0.051-0.025-0.104-0.04-0.155c-0.065-0.221-0.141-0.436-0.223-0.648  C18.585,6.262,18.578,6.235,18.568,6.209z M40.676,18.747c-0.459-0.24-1.077-0.465-1.897-0.662l3.275-4.889  c1.006-0.213,1.945-0.467,2.773-0.769C43.944,13.966,42.594,16.047,40.676,18.747z M37.574,19.884  c0.645,0.109,1.177,0.224,1.58,0.34c-0.505,0.162-1.238,0.331-2.134,0.488L37.574,19.884z M34.376,21.063  c-1.497,0.147-3.24,0.245-5.212,0.245c-4.623,0-8.631-0.555-10.458-1.082c1.745-0.456,5.517-0.918,10.458-0.918  c2.411,0,4.505,0.114,6.196,0.285L34.376,21.063z M36.63,17.698c-1.832-0.242-4.257-0.391-7.466-0.391  c-7.182,0-10.57,0.699-12.109,1.488c-0.838-1.115-1.635-2.205-2.358-3.234l-0.051-0.073c-0.051-0.073-0.095-0.138-0.145-0.209  c-0.184-0.265-0.366-0.528-0.54-0.785c-0.068-0.1-0.13-0.193-0.194-0.29c-0.173-0.257-0.341-0.512-0.504-0.764  c-0.043-0.066-0.088-0.135-0.129-0.199c-0.164-0.255-0.32-0.504-0.468-0.745c0.583,0.2,1.244,0.384,1.976,0.554  c0.406,0.094,0.83,0.185,1.282,0.27l-0.01,0.02l1.34,0.207l0.729,0.112l0.004-0.009c3.072,0.427,6.738,0.655,10.676,0.655  c2.147,0,6.574-0.079,10.668-0.643L36.63,17.698z M10.727,15.747c-3.55,0-6.437-2.888-6.437-6.438s2.888-6.438,6.437-6.438  c2.346,0,4.397,1.266,5.522,3.146c0.292,0.489,0.516,1.011,0.67,1.551c0.009,0.031,0.016,0.062,0.024,0.093  c0.06,0.224,0.105,0.451,0.141,0.68c0.009,0.057,0.019,0.114,0.026,0.171c0.033,0.264,0.055,0.529,0.055,0.796  c0,0.325-0.034,0.646-0.082,0.964c-0.012,0.079-0.026,0.158-0.041,0.237c-0.061,0.316-0.137,0.629-0.247,0.936  c-0.303-0.053-0.586-0.106-0.857-0.161c-0.177-0.036-0.342-0.072-0.507-0.108c-0.082-0.018-0.169-0.036-0.248-0.054  c-0.191-0.044-0.372-0.088-0.546-0.133c-0.039-0.01-0.08-0.02-0.119-0.03c-0.184-0.048-0.357-0.096-0.522-0.144  c-0.023-0.007-0.046-0.013-0.068-0.02c-0.165-0.049-0.321-0.097-0.468-0.146c-0.021-0.007-0.042-0.014-0.063-0.021  c-0.138-0.046-0.268-0.092-0.39-0.138c-0.034-0.013-0.066-0.025-0.098-0.038c-0.099-0.038-0.193-0.075-0.281-0.112  c-0.071-0.03-0.139-0.06-0.203-0.089c-0.039-0.018-0.079-0.035-0.116-0.053c-1.014-0.485-1.135-0.857-1.136-0.864L11.17,9.336  c-0.002-0.01-0.006-0.021-0.006-0.029h-0.008c-0.149-0.484-0.633-0.763-1.131-0.664C9.669,8.71,9.401,8.979,9.284,9.308H9.164  c0,0.707,0.303,1.932,2.318,5.064c0.01,0.016,0.018,0.029,0.029,0.046c0.015,0.023,0.032,0.048,0.047,0.071  c0.218,0.337,0.449,0.689,0.708,1.071C11.763,15.684,11.249,15.747,10.727,15.747z M39.008,48.808c-0.892,0.593-4.254,1.5-9.843,1.5  s-8.952-0.907-9.843-1.5c0.837-0.557,3.853-1.39,8.843-1.49v1.131c0,0.553,0.448,1,1,1s1-0.447,1-1v-1.131  C35.155,47.417,38.17,48.251,39.008,48.808z M30.883,31.592c-0.428,0.535-1.067,0.848-1.751,0.856c-0.01,0-0.02,0-0.029,0  c-0.676,0-1.312-0.296-1.749-0.815c-1.849-2.199-4.633-5.559-7.378-9.047c3.396,0.668,7.865,0.722,9.188,0.722  c1.275,0,2.558-0.046,3.794-0.127l-4.398,6.566c-0.307,0.459-0.184,1.08,0.274,1.388c0.171,0.114,0.364,0.169,0.556,0.169  c0.322,0,0.639-0.155,0.832-0.443l5.299-7.911c0.666-0.079,1.3-0.17,1.887-0.273c0.167-0.029,0.308-0.061,0.464-0.091  C35.941,25.17,33.631,28.157,30.883,31.592z M46.164,9.308c0,0.344-0.774,0.874-2.44,1.393l1.564-2.334  C45.854,8.722,46.164,9.05,46.164,9.308z" fill="#FFFFFF"/>
<g>
</g>
<g>
</g>
<g>
</g>
<g>
</g>
<g>
</g>
<g>
</g>
<g>
</g>
<g>
</g>
<g>
</g>
<g>
</g>
<g>
</g>
<g>
</g>
<g>
</g>
<g>
</g>
<g>
</g>
</svg>
