<?xml version="1.0" encoding="iso-8859-1"?>
<!-- Generator: Adobe Illustrator 16.0.0, SVG Export Plug-In . SVG Version: 6.00 Build 0)  -->
<!DOCTYPE svg PUBLIC "-//W3C//DTD SVG 1.1//EN" "http://www.w3.org/Graphics/SVG/1.1/DTD/svg11.dtd">
<svg xmlns="http://www.w3.org/2000/svg" xmlns:xlink="http://www.w3.org/1999/xlink" version="1.1" id="Capa_1" x="0px" y="0px" width="512px" height="512px" viewBox="0 0 380.723 380.723" style="enable-background:new 0 0 380.723 380.723;" xml:space="preserve">
<g>
	<path d="M182.524,78.085c-3.282-18.573-6.901-36.204-10.684-50.28c-5.019-18.596-15.406-24.899-23.26-26.909   C119.702-6.4,80.565,33.138,76.208,37.681l12.601,12.101c11.612-12.101,40.438-35.739,55.444-31.969   c1.807,0.465,7.313,1.865,10.729,14.546c3.428,12.723,6.722,28.71,9.777,45.726h-15.691l18.3,297.514h9.603v5.124h99.903v-5.136   h9.598l18.043-297.502H182.524z M164.533,153.74l-3.997-64.85h6.094c3.771,22.279,7.064,45.458,9.639,64.85H164.533z    M175.692,213.994c-2.172-4.38-0.377-9.678,4.003-11.852l25.759-12.792c4.369-2.19,9.689-0.383,11.874,3.985l12.804,25.793   c2.161,4.38,0.349,9.667-3.996,11.839l-25.794,12.816c-4.345,2.148-9.667,0.371-11.833-4.009L175.692,213.994z M231.038,212.146   l-10.607-21.366c-1.312-2.655-3.66-4.508-6.32-5.571l1.104-13.861c0.406-5.124,4.868-8.912,9.945-8.528l0.116,0.012   c0.023,0,0.047-0.012,0.069-0.012l30.069,2.376c5.101,0.407,8.9,4.868,8.505,9.975l-2.37,30.076   c-0.406,5.1-4.868,8.888-9.957,8.492l-0.104-0.012c-0.023,0-0.047,0.012-0.07,0.012L231.038,212.146z M239.369,274.551   c0.012,4.88-3.938,8.854-8.818,8.865l-10.736,0.047l0,0l-18.102,0.058c-4.88,0.012-8.871-3.938-8.888-8.83l-0.082-26.282   c1.098,0.326,2.236,0.512,3.428,0.512c1.848,0,3.613-0.406,5.264-1.231l21.727-10.771l7.238-0.023   c4.892-0.012,8.865,3.928,8.877,8.83L239.369,274.551z M241.124,339.895l-23.772,16.336c-4.021,2.754-9.527,1.742-12.292-2.277   l-16.348-23.76c-2.771-4.032-1.749-9.539,2.271-12.316l23.766-16.312c0.07-0.07,0.186-0.07,0.268-0.128l0.012,4.984   c0.012,7.552,6.181,13.687,13.71,13.687l9.48-0.035l5.171,7.506C246.178,331.61,245.155,337.129,241.124,339.895z M257.61,315.135   l-22.715,0.082l0,0l-6.111,0.023c0,0-0.012,0-0.023,0c-0.674,0-1.289-0.244-1.928-0.385c-0.5-0.115-1.035-0.104-1.499-0.301   c-0.488-0.21-0.86-0.57-1.29-0.849c-0.522-0.337-1.104-0.604-1.533-1.034c-0.256-0.256-0.372-0.593-0.593-0.871   c-0.488-0.616-0.999-1.209-1.313-1.941c-0.441-1.057-0.697-2.219-0.697-3.438l-0.022-6.251l0,0l-0.035-11.828l10.724-0.046   c3.66-0.012,7.088-1.44,9.679-4.032c2.579-2.613,3.997-6.053,3.985-9.701l-0.012-5.891l13.233-0.035   c4.903-0.023,8.877,3.916,8.877,8.818l0.093,28.838C266.452,311.15,262.502,315.123,257.61,315.135z M193.923,153.74   c-2.498-19.142-5.758-42.28-9.545-64.85h108.681l-3.927,64.85H193.923z" fill="#FFFFFF"/>
</g>
<g>
</g>
<g>
</g>
<g>
</g>
<g>
</g>
<g>
</g>
<g>
</g>
<g>
</g>
<g>
</g>
<g>
</g>
<g>
</g>
<g>
</g>
<g>
</g>
<g>
</g>
<g>
</g>
<g>
</g>
</svg>
