<?xml version="1.0" encoding="iso-8859-1"?>
<!-- Generator: Adobe Illustrator 19.0.0, SVG Export Plug-In . SVG Version: 6.00 Build 0)  -->
<svg xmlns="http://www.w3.org/2000/svg" xmlns:xlink="http://www.w3.org/1999/xlink" version="1.1" id="Layer_1" x="0px" y="0px" viewBox="0 0 512 512" style="enable-background:new 0 0 512 512;" xml:space="preserve" width="512px" height="512px">
<g>
	<g>
		<path d="M331.691,186.145c-0.859-4.118-4.898-6.752-9.012-5.901c-4.118,0.859-6.76,4.894-5.901,9.012    c1.119,5.361,1.663,10.782,1.663,16.569v10.732H193.559v-10.732c0-22.518,8.121-36.498,17.523-52.689    c5.113-8.804,10.368-17.854,14.536-28.726c0.101,0.002,0.201,0.003,0.301,0.003h60.163c0.101,0,0.201-0.001,0.301-0.003    c4.168,10.876,9.426,19.929,14.54,28.735l1.644,2.837c2.104,3.643,6.764,4.888,10.406,2.785c3.642-2.104,4.889-6.763,2.785-10.406    l-1.661-2.865c-5.233-9.011-10.611-18.317-14.491-29.333c1.086-2.094,1.71-4.466,1.71-6.983V15.234    c0-8.4-6.834-15.234-15.234-15.234h-60.163c-8.4,0-15.234,6.834-15.234,15.234v93.947c0,2.518,0.625,4.889,1.71,6.983    c-3.879,11.011-9.255,20.315-14.487,29.323c-9.628,16.578-19.584,33.72-19.584,60.34v18.349V412.42v27.463    c0,4.208,3.41,7.617,7.617,7.617s7.617-3.409,7.617-7.617v-19.846h124.883v76.729H193.559v-21.338c0-4.208-3.41-7.617-7.617-7.617    s-7.617,3.409-7.617,7.617v28.955c0,4.208,3.41,7.617,7.617,7.617h140.117c4.207,0,7.617-3.409,7.617-7.617V412.42    c0-0.003,0-0.006,0-0.01V224.186c-0.001-0.003,0-0.006,0-0.01v-18.349C333.675,198.981,333.026,192.543,331.691,186.145z     M225.919,15.234h60.163l0.01,93.939c-0.003,0.003-0.007,0.005-0.01,0.008l-60.154-0.003c-0.003-0.002-0.006-0.004-0.009-0.007    V15.234z M318.44,404.803H193.559v-173.01H318.44V404.803z" fill="#FFFFFF"/>
	</g>
</g>
<g>
	<g>
		<path d="M256,250.547c-15.24,0-27.178,16.553-27.178,37.684c0.001,21.131,11.939,37.685,27.178,37.685    c15.24,0,27.177-16.553,27.177-37.685C283.177,267.099,271.24,250.547,256,250.547z M256,310.68    c-5.639,0-11.944-9.601-11.944-22.451s6.307-22.45,11.944-22.45c5.638,0,11.943,9.6,11.943,22.45    C267.943,301.079,261.637,310.68,256,310.68z" fill="#FFFFFF"/>
	</g>
</g>
<g>
	<g>
		<path d="M296.88,372.267H215.12c-4.207,0-7.617,3.409-7.617,7.617s3.41,7.617,7.617,7.617h81.761c4.207,0,7.617-3.409,7.617-7.617    S301.087,372.267,296.88,372.267z" fill="#FFFFFF"/>
	</g>
</g>
<g>
	<g>
		<path d="M296.88,342.394H215.12c-4.207,0-7.617,3.409-7.617,7.617c0,4.208,3.41,7.617,7.617,7.617h81.761    c4.207,0,7.617-3.409,7.617-7.617C304.497,345.804,301.087,342.394,296.88,342.394z" fill="#FFFFFF"/>
	</g>
</g>
<g>
</g>
<g>
</g>
<g>
</g>
<g>
</g>
<g>
</g>
<g>
</g>
<g>
</g>
<g>
</g>
<g>
</g>
<g>
</g>
<g>
</g>
<g>
</g>
<g>
</g>
<g>
</g>
<g>
</g>
</svg>
