<?xml version="1.0" encoding="iso-8859-1"?>
<!-- Generator: Adobe Illustrator 19.0.0, SVG Export Plug-In . SVG Version: 6.00 Build 0)  -->
<svg xmlns="http://www.w3.org/2000/svg" xmlns:xlink="http://www.w3.org/1999/xlink" version="1.1" id="Layer_1" x="0px" y="0px" viewBox="0 0 512 512" style="enable-background:new 0 0 512 512;" xml:space="preserve" width="512px" height="512px">
<g>
	<g>
		<path d="M195.23,302.545H9.048c-5.141,0-9.048,4.534-9.048,9.675v148.952c0,25.661,20.616,46.173,46.277,46.173H158    c25.661,0,46.8-20.511,46.8-46.173V312.22C204.8,307.079,200.371,302.545,195.23,302.545z M186.182,461.173    c0,15.395-12.786,27.554-28.182,27.554H46.277c-15.396,0-27.659-12.159-27.659-27.554v-45.012c0-1.709,2.991-6.132,8.786-9.004    c7.809-3.873,23.205-5.85,52.516,6.711c6.864,2.941,13.073,5.677,18.793,8.182c26.377,11.557,43.064,18.816,58.477,18.816    c9.4-0.002,17.354-2.712,28.991-8.786V461.173z M186.182,409.911c-25.6,18.682-33.721,15.316-79.9-4.914    c-5.759-2.525-12.114-5.28-19.03-8.243c-28.775-12.33-51.621-14.443-68.091-6.277c-0.225,0.111-0.543,0.234-0.543,0.348v-69.661    h167.564V409.911z" fill="#FFFFFF"/>
	</g>
</g>
<g>
	<g>
		<path d="M502.43,144.291h-74.473c-15.4,0-27.927-16.523-27.927-37.055c0-20.532,12.527-37.143,27.927-37.143    c1.82,0,3.505-0.498,4.939-1.4c13.298-4.105,22.989-16.668,22.989-31.298c0-17.966-14.616-32.741-32.582-32.741h-102.4    c-17.966,0-32.582,14.8-32.582,32.764c0,14.63,9.691,27.123,22.989,31.23c1.434,0.902,3.118,1.491,4.939,1.491    c15.4,0,27.927,16.543,27.927,37.075c0,20.532-12.527,37.077-27.927,37.077h-74.473c-5.141,0-9.048,4.534-9.048,9.675v344.436    c0,5.141,3.907,8.943,9.048,8.943H502.43c5.141,0,9.57-3.802,9.57-8.943V153.966C512,148.825,507.57,144.291,502.43,144.291z     M320.902,51.2c-7.7,0-13.964-6.264-13.964-13.964s6.264-13.964,13.964-13.964h102.4c7.7,0,13.964,6.264,13.964,13.964    S431.002,51.2,423.302,51.2H320.902z M393.3,144.291h-42.398c7.389-9.309,11.891-22.941,11.891-37.236    c0-14.296-4.502-27.927-11.891-37.236H393.3c-7.386,9.309-11.889,22.941-11.889,37.236    C381.411,121.35,385.914,134.982,393.3,144.291z M251.345,325.048l43.016,43.016l-43.016,43.016V325.048z M425.75,368.064    l-52.662,52.662l-52.661-52.662l52.661-52.659L425.75,368.064z M386.252,302.239l49.157-49.155l52.659,52.659L438.914,354.9    L386.252,302.239z M307.264,354.9l-49.154-49.157l52.659-52.659l49.157,49.155L307.264,354.9z M251.345,488.727v-51.4    c0-0.127,0.173-0.225,0.309-0.361l55.675-55.739l52.627,52.477l-55.236,55.023H251.345z M331.048,488.727l42.041-42.041    l42.041,42.041H331.048z M493.382,488.727h-51.925l-55.205-55.023l52.791-52.568l54.339,54.298V488.727z M493.382,409.107    l-41.043-41.043l41.043-41.043V409.107z M493.382,284.466l-51.261-51.13c-3.629-3.636-9.595-3.636-13.227,0l-55.773,55.739    l-55.754-55.739c-3.632-3.636-9.409-3.636-13.041,0l-52.979,53.102v-123.53h242.036V284.466z" fill="#FFFFFF"/>
	</g>
</g>
<g>
</g>
<g>
</g>
<g>
</g>
<g>
</g>
<g>
</g>
<g>
</g>
<g>
</g>
<g>
</g>
<g>
</g>
<g>
</g>
<g>
</g>
<g>
</g>
<g>
</g>
<g>
</g>
<g>
</g>
</svg>
