<?xml version="1.0" encoding="iso-8859-1"?>
<!-- Generator: Adobe Illustrator 19.0.0, SVG Export Plug-In . SVG Version: 6.00 Build 0)  -->
<svg xmlns="http://www.w3.org/2000/svg" xmlns:xlink="http://www.w3.org/1999/xlink" version="1.1" id="Capa_1" x="0px" y="0px" viewBox="0 0 448 448" style="enable-background:new 0 0 448 448;" xml:space="preserve" width="512px" height="512px">
<path d="M308,106.343v-64.49c5.019-4.512,8-11.002,8-17.853c0-13.233-10.767-24-24-24h-32c-13.233,0-24,10.767-24,24  c0,7.091,3.094,13.472,8,17.869v64.474c-23.54,6.979-40,28.564-40,53.657v32c0,4.418,3.582,8,8,8s8-3.582,8-8v-32  c0-19.253,14.333-36.203,33.338-39.428c0.664-0.113,1.295-0.311,1.889-0.572h41.546c0.594,0.262,1.224,0.459,1.889,0.572  C317.667,123.797,332,140.747,332,160v32h-56c-4.418,0-8,3.582-8,8v152c0,4.418,3.582,8,8,8h56v72H220v-98  c0-0.127-0.013-0.25-0.019-0.375C234.71,320.432,244,301.283,244,280c0-11.121-2.596-33.1-6.774-57.358  c-0.661-3.837-3.99-6.642-7.884-6.642H114.658c-3.894,0-7.223,2.805-7.884,6.642C102.596,246.9,100,268.879,100,280  c0,36.996,28.052,67.551,64,71.545V432h-24c-4.418,0-8,3.582-8,8s3.582,8,8,8h72h128c4.418,0,8-3.582,8-8V160  C348,134.907,331.54,113.322,308,106.343z M268,48c4.418,0,8-3.582,8-8s-3.582-8-8-8h-8c-4.411,0-8-3.589-8-8s3.589-8,8-8h32  c4.411,0,8,3.589,8,8c0,2.829-1.541,5.483-4.022,6.927c-2.891,1.681-4.332,4.896-3.9,8.016C292.032,39.29,292,39.641,292,40v64h-32  V48H268z M116,280c0-9.143,2.095-27.525,5.429-48H204v32h-72c-4.418,0-8,3.582-8,8s3.582,8,8,8h80c4.418,0,8-3.582,8-8v-40h2.571  c3.334,20.475,5.429,38.857,5.429,48c0,30.879-25.122,56-56,56S116,310.879,116,280z M180,351.545  c8.537-0.948,16.624-3.396,24-7.072V432h-24V351.545z M284,344V208h48v136H284z" fill="#FFFFFF"/>
<g>
</g>
<g>
</g>
<g>
</g>
<g>
</g>
<g>
</g>
<g>
</g>
<g>
</g>
<g>
</g>
<g>
</g>
<g>
</g>
<g>
</g>
<g>
</g>
<g>
</g>
<g>
</g>
<g>
</g>
</svg>
