<?xml version="1.0" encoding="iso-8859-1"?>
<!-- Generator: Adobe Illustrator 19.0.0, SVG Export Plug-In . SVG Version: 6.00 Build 0)  -->
<svg xmlns="http://www.w3.org/2000/svg" xmlns:xlink="http://www.w3.org/1999/xlink" version="1.1" id="Capa_1" x="0px" y="0px" viewBox="0 0 511.999 511.999" style="enable-background:new 0 0 511.999 511.999;" xml:space="preserve" width="512px" height="512px">
<g>
	<g>
		<path d="M503.467,366.933H8.533c-4.71,0-8.533,3.823-8.533,8.533C0,408.405,26.795,435.2,59.733,435.2h392.533    c32.939,0,59.733-26.795,59.733-59.733C512,370.756,508.177,366.933,503.467,366.933z M452.267,418.133H59.733    c-20.608,0-37.845-14.686-41.813-34.133h476.16C490.112,403.447,472.875,418.133,452.267,418.133z" fill="#FFFFFF"/>
	</g>
</g>
<g>
	<g>
		<path d="M435.2,418.133H76.8c-4.71,0-8.533,3.823-8.533,8.533c0,23.526,19.14,42.667,42.667,42.667h290.133    c23.526,0,42.667-19.14,42.667-42.667C443.733,421.956,439.91,418.133,435.2,418.133z M401.067,452.267H110.933    c-11.128,0-20.617-7.134-24.141-17.067h338.415C421.683,445.133,412.194,452.267,401.067,452.267z" fill="#FFFFFF"/>
	</g>
</g>
<g>
	<g>
		<path d="M309.427,93.355C307.934,64.93,284.467,42.667,256,42.667c-28.467,0-51.934,22.263-53.427,50.688L187.273,384h137.455    L309.427,93.355z M205.261,366.933l14.353-272.674c1.015-19.362,16.998-34.526,36.386-34.526s35.371,15.164,36.386,34.526    l14.353,272.674H205.261z" fill="#FFFFFF"/>
	</g>
</g>
<g>
	<g>
		<path d="M93.867,298.667c-23.526,0-42.667,19.14-42.667,42.667C51.2,364.86,70.34,384,93.867,384    c23.526,0,42.667-19.14,42.667-42.667C136.533,317.807,117.393,298.667,93.867,298.667z M93.867,366.933    c-14.114,0-25.6-11.486-25.6-25.6s11.486-25.6,25.6-25.6s25.6,11.486,25.6,25.6C119.467,355.447,107.981,366.933,93.867,366.933z" fill="#FFFFFF"/>
	</g>
</g>
<g>
	<g>
		<path d="M72.806,355.84c-2.97-4.301-4.54-9.318-4.54-14.507c0-2.031,0.341-4.198,1.075-6.844c0.811-2.901,0.034-6.016-2.048-8.192    c-6.519-6.81-15.266-10.564-24.627-10.564c-18.825,0-34.133,15.309-34.133,34.133C8.533,368.691,23.842,384,42.667,384    c13.133,0,25.242-7.723,30.848-19.686C74.803,361.566,74.53,358.34,72.806,355.84z M42.667,366.933    c-9.412,0-17.067-7.654-17.067-17.067c0-9.412,7.654-17.067,17.067-17.067c3.234,0,6.332,0.905,9.011,2.611    c-0.324,2.031-0.478,3.977-0.478,5.922c0,6.758,1.587,13.338,4.634,19.302C52.651,364.595,47.889,366.933,42.667,366.933z" fill="#FFFFFF"/>
	</g>
</g>
<g>
	<g>
		<path d="M101.709,303.838c-27.494-64.171-74.138-64.905-76.109-64.905c-2.995,0-5.777,1.57-7.313,4.13    c-9.933,16.555-20.676,55.637,8.815,86.212l0.077,0.162c1.886,3.772,6.246,5.606,10.266,4.301c1.98-0.64,3.635-0.939,5.222-0.939    c4.659,0,9.02,1.886,12.288,5.299c1.63,1.707,3.866,2.637,6.17,2.637c0.691,0,1.391-0.085,2.074-0.256    c2.978-0.751,5.325-3.038,6.144-5.99c3.081-11.042,13.167-18.756,24.525-18.756c2.867,0,5.547-1.442,7.125-3.84    C102.571,309.504,102.835,306.475,101.709,303.838z M57.574,319.164c-4.582-2.244-9.651-3.43-14.908-3.43    c-1.502,0-3.012,0.119-4.548,0.35c-20.471-22.596-12.279-48.836-7.586-59.452c10.035,1.98,33.058,10.163,50.765,43.964    C71.458,303.684,62.976,310.306,57.574,319.164z" fill="#FFFFFF"/>
	</g>
</g>
<g>
	<g>
		<path d="M61.696,327.612c-4.608-0.802-8.986,2.287-9.822,6.886c-0.461,2.526-0.674,4.702-0.674,6.835    c0,4.71,3.823,8.533,8.533,8.533c4.71,0,8.533-3.823,8.533-8.533c0-1.365,0.222-2.671,0.427-3.977    C69.427,332.74,66.304,328.397,61.696,327.612z" fill="#FFFFFF"/>
	</g>
</g>
<g>
	<g>
		<path d="M67.371,311.91l-8.533-17.067c-2.116-4.216-7.245-5.939-11.452-3.814c-4.215,2.108-5.922,7.236-3.814,11.452l8.533,17.067    c1.493,2.995,4.506,4.719,7.637,4.719c1.28,0,2.586-0.29,3.814-0.905C67.772,321.254,69.478,316.126,67.371,311.91z" fill="#FFFFFF"/>
	</g>
</g>
<g>
	<g>
		<path d="M443.733,324.267c-23.526,0-42.667,19.14-42.667,42.667c0,3.388,0.469,6.775,1.485,10.675l1.655,6.391h79.061l1.655-6.391    c1.007-3.9,1.476-7.287,1.476-10.675C486.4,343.407,467.26,324.267,443.733,324.267z M418.133,366.933    c0-14.114,11.486-25.6,25.6-25.6s25.6,11.486,25.6,25.6H418.133z" fill="#FFFFFF"/>
	</g>
</g>
<g>
	<g>
		<path d="M430.345,343.006l-8.986-4.898c-6.468-3.524-13.295-5.308-20.292-5.308c-23.526,0-42.667,19.14-42.667,42.667V384h63.437    l-2.773-10.675c-0.631-2.458-0.93-4.489-0.93-6.391c0-5.76,1.997-11.281,5.786-15.966L430.345,343.006z M401.067,366.933h-24.141    c3.9-10.991,15.437-18.679,27.665-16.802C402.27,355.413,401.067,361.088,401.067,366.933z" fill="#FFFFFF"/>
	</g>
</g>
<g>
	<g>
		<path d="M436.907,335.095l-35.951-208.503c-3.371-20.173-20.156-58.325-59.639-58.325c-1.502,0-36.958,0.384-48.043,26.692    c-0.503,1.186-0.725,2.475-0.657,3.763l14.592,277.197c0.239,4.523,3.985,8.081,8.525,8.081h51.2c4.71,0,8.533-3.823,8.533-8.533    c0-14.114,11.486-25.6,25.6-25.6c4.113,0,8.192,1.084,12.134,3.226c3.618,1.963,8.132,1.075,10.726-2.133    c2.313-2.867,5.146-5.154,8.405-6.793C435.686,342.477,437.547,338.799,436.907,335.095z M415.266,335.342    c-4.608-1.69-9.361-2.543-14.199-2.543c-20.608,0-37.845,14.686-41.813,34.133h-35.422L309.777,99.968    c7.663-14.276,31.351-14.635,31.556-14.635c34.825,0,42.479,42.291,42.795,44.117l34.961,202.82    C417.758,333.217,416.486,334.251,415.266,335.342z" fill="#FFFFFF"/>
	</g>
</g>
<g>
	<g>
		<path d="M218.718,94.959c-11.076-26.308-46.532-26.692-48.034-26.692c-0.009,0-0.009,0-0.017,0    c-39.467,0-56.252,38.153-59.605,58.283L80.068,306.295c-0.469,2.714,0.401,5.487,2.338,7.45c1.937,1.954,4.693,2.893,7.424,2.423    c1.323-0.213,2.654-0.435,4.036-0.435c14.114,0,25.6,11.486,25.6,25.6s-11.486,25.6-25.6,25.6c-4.71,0-8.533,3.823-8.533,8.533    c0,4.71,3.823,8.534,8.534,8.534h102.4c4.54,0,8.286-3.558,8.516-8.081l14.592-277.197    C219.443,97.434,219.221,96.145,218.718,94.959z M188.177,366.933h-60.194c5.367-7.134,8.55-16,8.55-25.6    c0-21.905-16.597-40.013-37.879-42.394l29.227-169.515c0.307-1.801,7.962-44.075,42.769-44.092    c0.324,0,23.962,0.486,31.573,14.635L188.177,366.933z" fill="#FFFFFF"/>
	</g>
</g>
<g>
	<g>
		<path d="M179.081,109.534c-0.777-4.651-5.163-7.791-9.822-7.014c-8.064,1.34-22.11,7.808-25.617,35.968    c-0.58,4.685,2.739,8.943,7.415,9.523c0.358,0.051,0.717,0.068,1.067,0.068c4.241,0,7.919-3.166,8.448-7.475    c0.922-7.373,3.635-19.934,11.494-21.248C176.717,118.579,179.857,114.184,179.081,109.534z" fill="#FFFFFF"/>
	</g>
</g>
<g>
	<g>
		<path d="M147.174,168.209c-4.659-0.828-9.054,2.313-9.856,6.955l-5.043,29.269c-0.802,4.642,2.313,9.054,6.955,9.856    c0.486,0.094,0.981,0.128,1.459,0.128c4.07,0,7.68-2.927,8.397-7.083l5.043-29.269    C154.931,173.423,151.817,169.011,147.174,168.209z" fill="#FFFFFF"/>
	</g>
</g>
<g>
	<g>
		<path d="M135.057,238.447c-4.651-0.836-9.054,2.313-9.856,6.955l-6.05,35.123c-0.802,4.642,2.313,9.054,6.955,9.856    c0.486,0.094,0.981,0.128,1.459,0.128c4.079,0,7.689-2.927,8.397-7.083l6.05-35.123    C142.814,243.661,139.699,239.249,135.057,238.447z" fill="#FFFFFF"/>
	</g>
</g>
<g>
	<g>
		<path d="M368.35,138.487c-3.499-28.16-17.553-34.62-25.617-35.968c-4.634-0.777-9.045,2.372-9.822,7.014    c-0.777,4.651,2.364,9.045,7.014,9.822c7.868,1.314,10.581,13.875,11.494,21.248c0.538,4.318,4.215,7.475,8.457,7.475    c0.35,0,0.708-0.026,1.058-0.068C365.611,147.43,368.93,143.164,368.35,138.487z" fill="#FFFFFF"/>
	</g>
</g>
<g>
	<g>
		<path d="M379.725,204.433l-5.043-29.269c-0.794-4.642-5.188-7.774-9.856-6.955c-4.642,0.794-7.757,5.214-6.955,9.856l5.043,29.269    c0.717,4.156,4.318,7.083,8.397,7.083c0.486,0,0.973-0.034,1.459-0.128C377.412,213.495,380.527,209.075,379.725,204.433z" fill="#FFFFFF"/>
	</g>
</g>
<g>
	<g>
		<path d="M392.849,280.525l-6.05-35.123c-0.794-4.642-5.222-7.808-9.856-6.955c-4.642,0.794-7.757,5.214-6.955,9.856l6.05,35.123    c0.717,4.156,4.318,7.083,8.397,7.083c0.478,0,0.964-0.034,1.459-0.128C390.536,289.587,393.651,285.167,392.849,280.525z" fill="#FFFFFF"/>
	</g>
</g>
<g>
</g>
<g>
</g>
<g>
</g>
<g>
</g>
<g>
</g>
<g>
</g>
<g>
</g>
<g>
</g>
<g>
</g>
<g>
</g>
<g>
</g>
<g>
</g>
<g>
</g>
<g>
</g>
<g>
</g>
</svg>
