<?xml version="1.0" encoding="iso-8859-1"?>
<!-- Generator: Adobe Illustrator 19.0.0, SVG Export Plug-In . SVG Version: 6.00 Build 0)  -->
<svg xmlns="http://www.w3.org/2000/svg" xmlns:xlink="http://www.w3.org/1999/xlink" version="1.1" id="Capa_1" x="0px" y="0px" viewBox="0 0 512.001 512.001" style="enable-background:new 0 0 512.001 512.001;" xml:space="preserve" width="512px" height="512px">
<g>
	<g>
		<path d="M499.428,326.224H458.96l-23.687-106.76l-21.31-96.01c-3.596-16.198-17.695-27.511-34.288-27.511h-81.672    c0.938-3.546,1.443-7.266,1.443-11.103c0-23.957-19.491-43.448-43.448-43.448c-23.957,0-43.448,19.491-43.448,43.448    c0,3.837,0.505,7.557,1.443,11.103h-81.67c-16.594,0-30.695,11.314-34.289,27.515L70.223,248.817    c-0.903,4.067,1.663,8.096,5.73,8.999c4.071,0.901,8.095-1.664,8.999-5.73l6.681-30.109c0.263,0.132,0.533,0.267,0.795,0.399    c21.013,10.565,42.744,21.49,66.074,15.725c10.201-2.52,19.033-7.982,27.574-13.265c10.311-6.376,20.055-12.39,30.391-11.851    c3.064,0.163,6.176,0.891,9.51,2.227c16.654,6.675,27.845,23.652,27.845,42.243v21.966c0,20.841,16.955,37.797,37.796,37.797    c20.84,0,37.796-16.956,37.796-37.797v-25.173c0-15.173,7.321-29.244,19.585-37.641c8.314-5.694,14.518-8.186,20.746-8.333    c8.245-0.206,16.436,4.049,25.062,8.547c3.209,1.674,6.528,3.404,9.925,4.937c5.385,2.43,11.041,4.342,16.865,5.721l21.909,98.748    H68.496l6.284-28.309c0.903-4.067-1.663-8.096-5.73-8.999c-4.072-0.899-8.096,1.664-8.999,5.73l-7.009,31.578h-40.47    C5.64,326.224,0,331.864,0,338.796v51.853c0,6.932,5.64,12.572,12.572,12.572h31.541l11.868,41.85    c4.264,15.036,18.157,25.537,33.787,25.537h192.047c4.167,0,7.543-3.377,7.543-7.543c0-4.166-3.377-7.543-7.543-7.543H89.769    c-8.915,0-16.84-5.99-19.272-14.566l-10.701-37.735h392.409l-10.701,37.734c-2.432,8.577-10.356,14.566-19.272,14.566h-94.15    c-4.167,0-7.543,3.377-7.543,7.543c0,4.166,3.377,7.543,7.543,7.543h94.15c15.63,0,29.523-10.502,33.787-25.537l11.868-41.85    h31.542c6.932,0,12.572-5.64,12.572-12.572v-51.853C512,331.864,506.36,326.224,499.428,326.224z M256,56.481    c15.639,0,28.361,12.722,28.361,28.361c0,15.638-12.722,28.36-28.361,28.36s-28.361-12.723-28.361-28.36    C227.639,69.204,240.361,56.481,256,56.481z M410.937,208.004c-3.007-1.355-5.992-2.913-9.153-4.561    c-9.941-5.184-20.212-10.552-32.399-10.253c-11.837,0.281-21.667,6.009-28.909,10.967c-16.374,11.21-26.148,29.936-26.148,50.09    v25.173c0,12.523-10.187,22.711-22.709,22.711s-22.709-10.187-22.709-22.711v-21.966c0-24.697-14.997-47.3-37.321-56.247    c-4.894-1.96-9.578-3.036-14.321-3.287c-0.739-0.039-1.468-0.059-2.194-0.059c-14.06,0-25.68,7.185-36.932,14.144    c-7.898,4.885-15.358,9.498-23.259,11.45c-17.916,4.428-36.259-4.792-55.676-14.557c-1.384-0.695-2.788-1.402-4.202-2.107    l17.762-80.063c2.05-9.241,10.093-15.695,19.56-15.695h89.035c7.94,10.475,20.511,17.257,34.639,17.257    s26.699-6.782,34.639-17.257h89.037c9.466,0,17.509,6.453,19.559,15.693l18.648,84.016    C415.517,209.937,413.197,209.025,410.937,208.004z M496.914,388.135L496.914,388.135h-34.73H49.815H15.087v-46.824h481.827    V388.135z" fill="#FFFFFF"/>
	</g>
</g>
<g>
</g>
<g>
</g>
<g>
</g>
<g>
</g>
<g>
</g>
<g>
</g>
<g>
</g>
<g>
</g>
<g>
</g>
<g>
</g>
<g>
</g>
<g>
</g>
<g>
</g>
<g>
</g>
<g>
</g>
</svg>
