<?xml version="1.0" encoding="iso-8859-1"?>
<!-- Generator: Adobe Illustrator 18.0.0, SVG Export Plug-In . SVG Version: 6.00 Build 0)  -->
<!DOCTYPE svg PUBLIC "-//W3C//DTD SVG 1.1//EN" "http://www.w3.org/Graphics/SVG/1.1/DTD/svg11.dtd">
<svg xmlns="http://www.w3.org/2000/svg" xmlns:xlink="http://www.w3.org/1999/xlink" version="1.1" id="Capa_1" x="0px" y="0px" viewBox="0 0 356.379 356.379" style="enable-background:new 0 0 356.379 356.379;" xml:space="preserve" width="512px" height="512px">
<g>
	<path d="M118.094,198.89c-5.523,0-10,4.477-10,10v78.494c0,5.523,4.477,10,10,10c5.523,0,10-4.477,10-10   V208.89C128.094,203.367,123.617,198.89,118.094,198.89z" fill="#FFFFFF"/>
	<path d="M193.751,198.89c-5.523,0-10,4.477-10,10v78.494c0,5.523,4.477,10,10,10c5.523,0,10-4.477,10-10   V208.89C203.751,203.367,199.274,198.89,193.751,198.89z" fill="#FFFFFF"/>
	<path d="M280.494,123.867h-11.578v-11.382c4.444-7.341,7.006-15.942,7.006-25.132   c0-24.768-18.595-45.274-42.557-48.293C228.889,16.809,209.192,0,185.644,0c-13.687,0-26.505,5.683-35.634,15.518   c-4.677-1.455-9.575-2.209-14.48-2.209c-18.208,0-34.761,10.32-43.062,26.005c-2.59-0.424-5.218-0.637-7.87-0.637   c-26.84,0-48.675,21.836-48.675,48.676c0,9.19,2.562,17.791,7.006,25.132v183.894c0,33.084,26.916,60,60,60h105.988   c30.546,0,55.817-22.951,59.516-52.512h12.061c22.035,0,39.962-17.927,39.962-39.963V163.831   C320.457,141.795,302.529,123.867,280.494,123.867z M84.598,58.677c3.51,0,6.949,0.633,10.222,1.882   c2.612,0.997,5.522,0.854,8.025-0.393c2.502-1.247,4.369-3.485,5.146-6.17c3.524-12.18,14.849-20.687,27.539-20.687   c4.612,0,9.023,1.069,13.112,3.177c4.561,2.35,10.161,0.869,12.961-3.431C166.928,24.88,175.915,20,185.644,20   c15.776,0,28.617,12.807,28.675,28.57c-0.002,0.082-0.003,0.165-0.003,0.229c0,2.783,1.16,5.44,3.201,7.333   c2.041,1.892,4.775,2.849,7.553,2.639c0.833-0.063,1.545-0.094,2.177-0.094c15.811,0,28.675,12.864,28.675,28.676   s-12.864,28.676-28.675,28.676h-84.906c-5.523,0-10,4.477-10,10v36.685c0,5.489-4.465,9.954-9.953,9.954   c-5.489,0-9.955-4.465-9.955-9.954v-36.685c0-5.523-4.477-10-10-10H84.598c-15.812,0-28.675-12.864-28.675-28.676   S68.786,58.677,84.598,58.677z M248.917,296.379c0,22.056-17.944,40-40,40H102.928c-22.056,0-40-17.944-40-40V130.921   c6.531,3.262,13.887,5.107,21.669,5.107h7.836v26.685c0,16.517,13.438,29.954,29.955,29.954c16.516,0,29.953-13.438,29.953-29.954   v-26.685h74.906c7.783,0,15.139-1.846,21.669-5.107V296.379z M300.457,263.904c0,11.008-8.955,19.963-19.962,19.963h-11.578v-140   h11.578c11.007,0,19.962,8.956,19.962,19.964V263.904z" fill="#FFFFFF"/>
</g>
<g>
</g>
<g>
</g>
<g>
</g>
<g>
</g>
<g>
</g>
<g>
</g>
<g>
</g>
<g>
</g>
<g>
</g>
<g>
</g>
<g>
</g>
<g>
</g>
<g>
</g>
<g>
</g>
<g>
</g>
</svg>
