<?xml version="1.0" encoding="iso-8859-1"?>
<!-- Generator: Adobe Illustrator 19.0.0, SVG Export Plug-In . SVG Version: 6.00 Build 0)  -->
<svg xmlns="http://www.w3.org/2000/svg" xmlns:xlink="http://www.w3.org/1999/xlink" version="1.1" id="Capa_1" x="0px" y="0px" viewBox="0 0 511.999 511.999" style="enable-background:new 0 0 511.999 511.999;" xml:space="preserve" width="512px" height="512px">
<g>
	<g>
		<path d="M285.64,366.075h-59.28c-5.523,0-10,4.477-10,10s4.477,10,10,10h59.28c5.523,0,10-4.477,10-10    S291.163,366.075,285.64,366.075z" fill="#FFFFFF"/>
	</g>
</g>
<g>
	<g>
		<path d="M295.639,405.708H216.36c-5.523,0-10,4.477-10,10s4.477,10,10,10h79.279c5.523,0,10-4.477,10-10    S301.162,405.708,295.639,405.708z" fill="#FFFFFF"/>
	</g>
</g>
<g>
	<g>
		<path d="M297.26,451.37c-5.52,0-10,4.48-10,10c0,5.51,4.48,10,10,10c5.51,0,10-4.49,10-10    C307.26,455.85,302.77,451.37,297.26,451.37z" fill="#FFFFFF"/>
	</g>
</g>
<g>
	<g>
		<path d="M336.27,326.44H175.73c-2.64,0-5.21,1.07-7.07,2.93c-1.87,1.86-2.93,4.44-2.93,7.07v124.93c0,2.63,1.06,5.21,2.93,7.07    c1.86,1.86,4.43,2.93,7.07,2.93h81.53c5.51,0,10-4.49,10-10c0-5.52-4.49-10-10-10h-71.53V346.44h140.54v114.93    c0,5.51,4.49,10,10,10c5.52,0,10-4.49,10-10V336.44C346.27,330.93,341.79,326.44,336.27,326.44z" fill="#FFFFFF"/>
	</g>
</g>
<g>
	<g>
		<path d="M381.221,266.788l-82.715-39.571v-55.765l18.797-30.075c1.927-3.083,2.029-6.968,0.267-10.147    c-1.762-3.179-5.111-5.152-8.747-5.152h-26.57v-24.507c16.644-9.259,27.935-27.023,27.935-47.382C310.188,24.309,285.879,0,256,0    c-29.879,0-54.188,24.309-54.188,54.188c0,20.359,11.291,38.123,27.935,47.382v24.507h-26.57c-3.635,0-6.984,1.973-8.747,5.152    c-1.763,3.179-1.66,7.065,0.267,10.147l18.796,30.075v55.765l-82.714,39.571c-3.474,1.662-5.685,5.17-5.685,9.021v205.875    c0,16.716,13.6,30.316,30.316,30.316h201.178c16.717,0,30.317-13.6,30.317-30.316V275.809    C386.906,271.958,384.695,268.45,381.221,266.788z M221.812,54.188C221.812,35.337,237.148,20,256,20s34.188,15.337,34.188,34.188    S274.852,88.377,256,88.377S221.812,73.04,221.812,54.188z M262.253,108.005v18.073h-12.507v-18.073    c2.053,0.237,4.137,0.372,6.253,0.372C258.115,108.377,260.2,108.242,262.253,108.005z M290.781,146.078l-7.767,12.428h-54.027    l-7.767-12.428H290.781z M278.506,178.584v44.934h-45.013v-44.934H278.506z M145.095,285.385v-3.275l80.668-38.591h60.475    l80.668,38.591v7.539c-6.456,1.166-10.844,3.341-14.595,5.202c-4.629,2.297-7.975,3.958-15.704,3.958s-11.075-1.66-15.704-3.958    c-5.424-2.692-12.175-6.042-24.595-6.042c-12.42,0-19.171,3.35-24.596,6.042c-4.63,2.297-7.975,3.958-15.705,3.958    s-11.075-1.66-15.705-3.958c-5.424-2.692-12.175-6.042-24.595-6.042c-12.421,0-19.173,3.35-24.598,6.042    c-4.631,2.298-7.976,3.958-15.708,3.958c-7.732,0-11.078-1.66-15.708-3.958c-3.751-1.862-8.141-4.036-14.598-5.202V285.385z     M366.91,481.684h-0.004c0,5.688-4.628,10.316-10.317,10.316H155.411c-5.688,0-10.316-4.628-10.316-10.316V310.24    c1.965,0.671,3.719,1.539,5.708,2.526c5.425,2.692,12.177,6.042,24.598,6.042c12.421,0,19.173-3.35,24.598-6.042    c4.63-2.298,7.976-3.958,15.708-3.958c7.73,0,11.075,1.66,15.705,3.958c5.424,2.692,12.175,6.042,24.596,6.042    c12.42,0,19.171-3.35,24.596-6.042c4.63-2.297,7.975-3.958,15.706-3.958c7.73,0,11.075,1.66,15.705,3.958    c5.424,2.692,12.175,6.042,24.595,6.042c12.42,0,19.17-3.35,24.595-6.042c1.988-0.987,3.741-1.854,5.705-2.525V481.684z" fill="#FFFFFF"/>
	</g>
</g>
<g>
</g>
<g>
</g>
<g>
</g>
<g>
</g>
<g>
</g>
<g>
</g>
<g>
</g>
<g>
</g>
<g>
</g>
<g>
</g>
<g>
</g>
<g>
</g>
<g>
</g>
<g>
</g>
<g>
</g>
</svg>
