<?xml version="1.0" encoding="iso-8859-1"?>
<svg xmlns="http://www.w3.org/2000/svg" xmlns:xlink="http://www.w3.org/1999/xlink" version="1.1" viewBox="0 0 470 470" enable-background="new 0 0 470 470" width="512px" height="512px">
  <g>
    <path d="m205,131.873c0,4.142 3.358,7.5 7.5,7.5s7.5-3.358 7.5-7.5c0-7.744 1.831-11.253 4.149-15.696 2.742-5.255 5.851-11.212 5.851-22.634 0-11.423-3.108-17.381-5.851-22.637-2.318-4.443-4.149-7.953-4.149-15.698 0-7.745 1.831-11.255 4.149-15.698 2.743-5.257 5.851-11.215 5.851-22.637 0-4.142-3.358-7.5-7.5-7.5s-7.5,3.358-7.5,7.5c0,7.745-1.831,11.255-4.149,15.698-2.743,5.257-5.851,11.215-5.851,22.637s3.108,17.38 5.851,22.637c2.318,4.443 4.149,7.954 4.149,15.699 0,7.743-1.831,11.252-4.149,15.695-2.743,5.255-5.851,11.212-5.851,22.634z" fill="#FFFFFF"/>
    <path d="m265,131.873c0,4.142 3.358,7.5 7.5,7.5s7.5-3.358 7.5-7.5c0-7.744 1.831-11.253 4.149-15.696 2.742-5.255 5.851-11.212 5.851-22.634 0-11.423-3.108-17.381-5.851-22.637-2.318-4.443-4.149-7.953-4.149-15.698 0-7.745 1.831-11.255 4.149-15.698 2.743-5.257 5.851-11.215 5.851-22.637 0-4.142-3.358-7.5-7.5-7.5s-7.5,3.358-7.5,7.5c0,7.745-1.831,11.255-4.149,15.698-2.743,5.257-5.851,11.215-5.851,22.637s3.108,17.38 5.851,22.637c2.318,4.443 4.149,7.954 4.149,15.699 0,7.743-1.831,11.252-4.149,15.695-2.743,5.255-5.851,11.212-5.851,22.634z" fill="#FFFFFF"/>
    <path d="m462.5,410.627h-10.169c-0.009,0-419.831,0-419.831,0-4.142,0-7.5,3.358-7.5,7.5s3.358,7.5 7.5,7.5h4.343l4.325,15.137c3.182,11.138 14.748,19.863 26.332,19.863h360c11.584,0 23.15-8.725 26.332-19.862l4.325-15.138h4.343c4.142,0 7.5-3.358 7.5-7.5s-3.358-7.5-7.5-7.5zm-23.091,26.017c-1.343,4.701-7.02,8.983-11.909,8.983h-360c-4.89,0-10.566-4.282-11.909-8.983l-3.148-11.017h390.114l-3.148,11.017z" fill="#FFFFFF"/>
    <path d="m93.088,275.263h9.412c2.229,0 4.343-0.992 5.768-2.706s2.014-3.974 1.606-6.165c-1.575-8.47-2.374-17.139-2.374-25.765v-48.754c0-4.142-3.358-7.5-7.5-7.5h-58.668c-3.08,0-5.847,1.883-6.977,4.749-2.89,7.329-4.355,15.084-4.355,23.052 0,34.787 28.301,63.089 63.088,63.089zm-46.367-75.89h45.779v41.254c0,6.552 0.417,13.125 1.241,19.636h-0.653c-26.516,0-48.088-21.573-48.088-48.089 0-4.377 0.578-8.664 1.721-12.801z" fill="#FFFFFF"/>
    <path d="M93.088,305.263h13.494c25.253,55.062,80.024,90.364,140.918,90.364c85.467,0,155-69.533,155-155v-78.754   c0-4.142-3.358-7.5-7.5-7.5H23.879c-2.397,0-4.649,1.146-6.061,3.083C6.161,173.45,0,192.371,0,212.174   C0,263.503,41.759,305.263,93.088,305.263z M27.803,169.373H347.5v32.5c0,4.142,3.358,7.5,7.5,7.5s7.5-3.358,7.5-7.5v-32.5h25   v71.254c0,77.196-62.804,140-140,140c-56.518,0-107.196-33.667-129.109-85.772c-1.17-2.783-3.895-4.592-6.914-4.592H93.088   C50.03,290.263,15,255.232,15,212.174C15,196.823,19.415,182.104,27.803,169.373z" fill="#FFFFFF"/>
    <path d="m247.5,355.627c63.411,0 115-51.589 115-115v-8.754c0-4.142-3.358-7.5-7.5-7.5s-7.5,3.358-7.5,7.5v8.754c0,55.14-44.86,100-100,100-4.142,0-7.5,3.358-7.5,7.5s3.358,7.5 7.5,7.5z" fill="#FFFFFF"/>
  </g>
</svg>
