<?xml version="1.0" encoding="iso-8859-1"?>
<!-- Generator: Adobe Illustrator 19.0.0, SVG Export Plug-In . SVG Version: 6.00 Build 0)  -->
<svg xmlns="http://www.w3.org/2000/svg" xmlns:xlink="http://www.w3.org/1999/xlink" version="1.1" id="Capa_1" x="0px" y="0px" viewBox="0 0 274.999 274.999" style="enable-background:new 0 0 274.999 274.999;" xml:space="preserve" width="512px" height="512px">
<g>
	<g>
		<g>
			<path d="M39.403,49.468c0.177,0.414,17.784,41.845,22.635,80.652c0.316,2.529,2.47,4.38,4.955,4.38     c0.207,0,0.416-0.013,0.626-0.038c2.74-0.343,4.683-2.842,4.341-5.582c-5.03-40.238-22.619-81.608-23.366-83.35     c-1.087-2.538-4.027-3.712-6.564-2.626C39.492,43.991,38.316,46.93,39.403,49.468z" fill="#FFFFFF"/>
			<path d="M274.281,20.92c-0.905-1.501-2.529-2.42-4.282-2.42h-265c-1.753,0-3.377,0.919-4.282,2.42     c-0.905,1.501-0.957,3.367-0.138,4.917c0.267,0.504,26.696,51.075,35.463,117.318c8.845,66.824,8.957,107.937,8.957,108.344     c0,2.762,2.239,5,5,5h175c2.761,0,5-2.238,5-5c0-0.407,0.113-41.519,8.957-108.344c8.767-66.243,35.197-116.815,35.463-117.318     C275.238,24.288,275.186,22.421,274.281,20.92z M220.08,246.499H54.919c-0.228-9.607-1.104-32.683-4.452-66h174.065     C221.184,213.816,220.308,236.892,220.08,246.499z M229.042,141.843c-1.344,10.154-2.488,19.723-3.462,28.656H49.418     c-0.974-8.933-2.118-18.502-3.462-28.656C38.819,87.924,20.784,45.065,13.024,28.499h248.95     C254.213,45.065,236.178,87.924,229.042,141.843z" fill="#FFFFFF"/>
		</g>
	</g>
</g>
<g>
</g>
<g>
</g>
<g>
</g>
<g>
</g>
<g>
</g>
<g>
</g>
<g>
</g>
<g>
</g>
<g>
</g>
<g>
</g>
<g>
</g>
<g>
</g>
<g>
</g>
<g>
</g>
<g>
</g>
</svg>
