<?xml version="1.0" encoding="iso-8859-1"?>
<!-- Generator: Adobe Illustrator 19.0.0, SVG Export Plug-In . SVG Version: 6.00 Build 0)  -->
<svg xmlns="http://www.w3.org/2000/svg" xmlns:xlink="http://www.w3.org/1999/xlink" version="1.1" id="Layer_1" x="0px" y="0px" viewBox="0 0 462.994 462.994" style="enable-background:new 0 0 462.994 462.994;" xml:space="preserve" width="512px" height="512px">
<g>
	<g>
		<path d="M462.853,270.051c-0.583-2.973-2.904-5.304-5.873-5.906c-0.256-0.052-25.798-5.389-44.44-22.201    c1.57-3.149,2.458-6.695,2.458-10.447c0-2.997-0.57-5.862-1.597-8.5h2.713c12.619,0,22.885-10.542,22.885-23.5v-16    c0-32.401-22.267-61.484-62.699-81.892c-18.2-9.186-39.553-16.38-62.992-21.379c-0.185-0.046-0.37-0.086-0.556-0.118    c-25.129-5.315-52.64-8.111-81.252-8.111c-55.548,0-106.973,10.515-144.801,29.608C46.267,122.013,24,151.096,24,183.497v16    c0,11.174,7.636,20.544,17.829,22.915c-1.177,2.796-1.829,5.866-1.829,9.085c0,5.584,1.961,10.716,5.226,14.753    c-13.309,4.639-29.919,9.747-37.726,9.747c-3.346,0-6.287,2.216-7.209,5.432s0.397,6.655,3.234,8.428l21.711,13.569    C15.018,288.64,8,299.261,8,311.497c0,15.424,11.146,28.285,25.805,30.974C32.644,345.252,32,348.3,32,351.497    c0,21.78,17.72,39.5,39.5,39.5h320c21.78,0,39.5-17.72,39.5-39.5c0-3.197-0.644-6.245-1.805-9.026    c14.659-2.689,25.805-15.55,25.805-30.974c0-9.192-4.063-17.697-10.648-23.554l15.308-10.206    C462.18,276.057,463.437,273.024,462.853,270.051z M438.12,274.068l-11.625,7.751c-0.392,0.213-0.763,0.462-1.113,0.742    l-16.257,10.838c-1.505,1.004-3.399,1.178-5.064,0.465l-49.607-21.26c-3.323-1.425-7.189-0.275-9.195,2.733l-7.873,11.81    c-4.616-4.413-14.31-14.942-22.531-32.15h12.644c6.177,0,11.801-2.399,16-6.31c4.199,3.911,9.823,6.31,16,6.31h9.877    c1.596,4.873,4.544,9.721,8.827,14.484c4.346,4.833,8.513,7.821,8.974,8.146c1.312,0.925,2.816,1.369,4.306,1.369    c2.349,0,4.662-1.104,6.125-3.167c2.391-3.373,1.594-8.05-1.771-10.45c-2.243-1.6-6.862-5.612-9.912-10.382h5.574    c3.752,0,7.298-0.888,10.448-2.459c0.166,0.182,0.341,0.358,0.527,0.526C414.161,263.611,427.801,270.194,438.12,274.068z     M98.757,254.998h20.741c1.67,0,3.3-0.178,4.873-0.511c-0.733,1.513-1.611,2.964-2.668,4.251    c-2.629,3.201-2.166,7.927,1.035,10.556c1.396,1.146,3.081,1.705,4.756,1.705c2.167,0,4.317-0.935,5.8-2.74    c3.987-4.853,6.334-10.635,7.719-15.738c3.159,1.582,6.719,2.478,10.486,2.478h59.413c3.492,6.366,11.109,18.56,23.496,30.008    c1.442,1.333,3.268,1.992,5.088,1.992c2.019,0,4.032-0.81,5.51-2.41c2.812-3.042,2.625-7.787-0.417-10.598    c-7.115-6.577-12.454-13.498-16.118-18.992h11.027c6.177,0,11.801-2.399,16-6.31c4.199,3.911,9.823,6.31,16,6.31h26.927    c6.424,15.334,14.165,26.65,20.49,34.271l-33.276-12.481c-9.737-3.651-20.779-1.259-28.133,6.094l-13.508,13.508    c-3.077,3.077-7.881,3.473-11.421,0.945l-44.719-31.942c-2.032-1.451-4.654-1.795-6.993-0.919l-59.478,22.304l-12.585-12.585    c-2.639-2.64-6.817-2.936-9.803-0.697l-22.014,16.511c-3.512,2.634-8.373,2.84-12.096,0.514l-4.346-2.716    C69.784,281.297,84.653,269.886,98.757,254.998z M63.499,239.997c-4.687,0-8.5-3.813-8.5-8.5s3.813-8.5,8.5-8.5h56    c4.687,0,8.5,3.813,8.5,8.5s-3.813,8.5-8.5,8.5H63.499z M142.999,231.497c0-4.687,3.813-8.5,8.5-8.5h88c4.687,0,8.5,3.813,8.5,8.5    s-3.813,8.5-8.5,8.5h-24.146c-0.007,0-0.015,0-0.022,0h-63.832C146.812,239.997,142.999,236.184,142.999,231.497z     M262.999,231.497c0-4.687,3.813-8.5,8.5-8.5h56c4.687,0,8.5,3.813,8.5,8.5s-3.813,8.5-8.5,8.5h-56    C266.812,239.997,262.999,236.184,262.999,231.497z M350.999,231.497c0-4.687,3.813-8.5,8.5-8.5h32c4.687,0,8.5,3.813,8.5,8.5    s-3.813,8.5-8.5,8.5h-32C354.812,239.997,350.999,236.184,350.999,231.497z M38.999,199.497v-16    c0-17.311,8.2-33.281,22.851-47.042l36.346,36.346c1.464,1.464,3.384,2.197,5.303,2.197c1.919,0,3.839-0.732,5.303-2.197    c2.929-2.929,2.929-7.678,0-10.606l-35.281-35.281c5.042-3.611,10.584-7.021,16.57-10.217l56.104,56.104    c1.464,1.464,3.384,2.197,5.303,2.197s3.839-0.732,5.303-2.197c2.929-2.929,2.929-7.678,0-10.606l-52.371-52.371    c6.144-2.639,12.654-5.076,19.486-7.301l70.279,70.279c1.464,1.464,3.384,2.197,5.303,2.197s3.839-0.732,5.303-2.197    c2.929-2.929,2.929-7.678,0-10.606l-64.444-64.447c7.058-1.815,14.397-3.419,21.99-4.797l79.849,79.849    c1.464,1.464,3.384,2.197,5.303,2.197c1.919,0,3.839-0.732,5.303-2.197c2.929-2.929,2.929-7.678,0-10.606l-72.069-72.069    c7.94-1.009,16.108-1.784,24.478-2.309l84.985,84.985c1.464,1.464,3.384,2.197,5.303,2.197s3.839-0.732,5.303-2.197    c2.929-2.929,2.929-7.678,0-10.606L225.648,87.04c1.942-0.026,3.891-0.043,5.85-0.043c7.271,0,14.419,0.187,21.437,0.543    l85.26,85.26c1.464,1.464,3.384,2.197,5.303,2.197s3.839-0.732,5.303-2.197c2.929-2.929,2.929-7.678,0-10.606l-72.819-72.819    c11.01,1.209,21.605,2.865,31.717,4.93l78.496,78.496c1.464,1.464,3.384,2.197,5.303,2.197s3.839-0.732,5.303-2.197    c2.929-2.929,2.929-7.678,0-10.606l-60.593-60.593c53.585,16.757,87.79,46.53,87.79,81.896v16c0,4.687-3.537,8.5-7.885,8.5H46.883    C42.536,207.997,38.999,204.184,38.999,199.497z M64.915,254.997h12.454c-12.957,11.91-25.207,20.469-30.72,24.124L27.911,267.41    C43.006,263.357,59.61,257.059,64.915,254.997z M391.499,375.997h-320c-13.509,0-24.5-10.991-24.5-24.5c0-4.687,3.813-8.5,8.5-8.5    h352c4.687,0,8.5,3.813,8.5,8.5C415.999,365.006,405.008,375.997,391.499,375.997z M423.499,327.997h-384    c-9.098,0-16.5-7.402-16.5-16.5c0-9.098,7.402-16.5,16.5-16.5h4.249l13.191,8.244c8.939,5.587,20.611,5.091,29.046-1.233    l9.348-7.011h13.06l5.803,5.803c2.08,2.08,5.183,2.752,7.937,1.719l20.06-7.522h61.303l20.364,14.545    c4.197,2.998,9.052,4.468,13.879,4.468c6.137,0,12.23-2.376,16.866-7.013l12.001-12h24.727c0.042,0,0.082-0.006,0.124-0.006    l29.911,11.217c10.051,3.77,21.23,0.164,27.185-8.769l1.628-2.442h18.447l29.526,12.654c6.341,2.717,13.554,2.055,19.293-1.771    l13.582-9.055c5.401,2.784,8.97,8.427,8.97,14.672C439.999,320.595,432.597,327.997,423.499,327.997z" fill="#FFFFFF"/>
	</g>
</g>
<g>
</g>
<g>
</g>
<g>
</g>
<g>
</g>
<g>
</g>
<g>
</g>
<g>
</g>
<g>
</g>
<g>
</g>
<g>
</g>
<g>
</g>
<g>
</g>
<g>
</g>
<g>
</g>
<g>
</g>
</svg>
