<?xml version="1.0" encoding="iso-8859-1"?>
<!-- Generator: Adobe Illustrator 19.0.0, SVG Export Plug-In . SVG Version: 6.00 Build 0)  -->
<svg xmlns="http://www.w3.org/2000/svg" xmlns:xlink="http://www.w3.org/1999/xlink" version="1.1" id="Layer_1" x="0px" y="0px" viewBox="0 0 512 512" style="enable-background:new 0 0 512 512;" xml:space="preserve" width="512px" height="512px">
<g>
	<g>
		<path d="M467.901,240.723c-26.846-21.488-64.13-38.367-107.893-48.868l-78.513-56.894l-9.196,12.691l40.314,29.214    c-5.509-1.405-11.26-2.617-17.244-3.613c-6.26-13.377-17.812-23.18-31.533-25.923V53.023h-15.673v94.308    c-13.722,2.743-25.274,12.546-31.533,25.923c-5.984,0.996-11.735,2.208-17.244,3.613l40.314-29.214l-9.196-12.691L62.4,256.778    l12.141,8.798c-2.197,6.074-3.31,12.284-3.31,18.536c0,0.057,0.003,0.113,0.003,0.17v35.54c0,26.754,19.943,51.458,56.153,69.564    c34.485,17.242,80.16,26.738,128.613,26.738s94.129-9.496,128.613-26.738c36.21-18.106,56.153-42.812,56.153-69.564v-35.57    c0-0.047,0.003-0.093,0.003-0.14c0-6.253-1.113-12.464-3.31-18.536l12.141-8.798l-50.306-36.454    c60.155,23.186,97.032,59.85,97.032,99.159c0,32.124-24.335,62.726-68.52,86.17C382.044,429.932,321.028,443.303,256,443.303    s-126.044-13.372-171.806-37.651c-44.186-23.443-68.52-54.045-68.52-86.17c0-36.119,31.129-70.496,85.403-94.315l-6.298-14.353    C34.545,237.249,0,276.857,0,319.483c0,38.205,27.292,73.724,76.848,100.016c47.985,25.458,111.609,39.478,179.152,39.478    s131.167-14.02,179.152-39.478C484.708,393.206,512,357.686,512,319.483C512,291.05,496.751,263.816,467.901,240.723z     M256,162.215c15.844,0,28.735,15.234,28.735,33.959c0,18.726-12.891,33.959-28.735,33.959c-15.844,0-28.735-15.234-28.735-33.959    C227.265,177.449,240.156,162.215,256,162.215z M211.938,190.073c-0.22,2.001-0.348,4.034-0.348,6.101    c0.002,3.6,0.355,7.109,1.01,10.494c-3.44-0.785-7.091-0.549-9.419,0.805c-3.387,1.969-2.681,5.552,1.582,8.012    c2.138,1.234,7.174,2.351,11.658,3.157c6.21,13.607,17.866,23.601,31.741,26.375v15.825h15.673v-15.825    c13.89-2.776,25.556-12.789,31.761-26.418c4.419-0.802,9.313-1.901,11.404-3.116c4.228-2.458,4.893-6.048,1.484-8.016    c-2.257-1.303-5.744-1.56-9.071-0.872c0.645-3.362,0.993-6.846,0.993-10.42c0-2.067-0.127-4.1-0.348-6.101    c40.169,8.288,68.266,27.592,68.266,47.897c0,12.738-11.249,25.669-30.864,35.475c-21.628,10.815-50.559,16.77-81.462,16.77    c-30.903,0-59.834-5.955-81.462-16.77c-19.616-9.806-30.864-22.737-30.864-35.475    C143.671,217.665,171.768,198.361,211.938,190.073z M256,321.562c-30.904,0-59.835-5.956-81.463-16.771    c-18.698-9.349-29.787-21.536-30.782-33.69c21.582,20.907,63.294,34.787,112.245,34.787s90.663-13.879,112.245-34.787    c-0.995,12.153-12.083,24.341-30.782,33.69C315.835,315.606,286.904,321.562,256,321.562z M327.305,326.043L256,377.713    l-71.305-51.67c20.255,7.094,44.71,11.193,71.305,11.193S307.049,333.136,327.305,326.043z M129.464,227.536    c-0.951,3.404-1.464,6.887-1.464,10.434v31.347c0,6.733,1.765,13.208,5.055,19.307L89.11,256.778L129.464,227.536z     M377.603,375.368c-32.35,16.175-75.537,25.084-121.603,25.084s-89.253-8.908-121.603-25.084    c-28.674-14.337-45.285-32.543-47.284-51.638c19.462,22.942,55.758,41.266,102.986,50.495l3.006-15.382    C129.68,346.45,87.037,316.49,86.906,284.26v-0.144h-0.002v-0.004c0-2.94,0.356-5.884,1.058-8.812L256,397.069l24.082-17.45    c42.906-2.859,82.515-13.391,111.747-29.756c13.836-7.745,24.946-16.583,33.062-26.15    C422.897,342.814,406.286,361.027,377.603,375.368z M425.096,284.113v0.004h-0.003v0.116    c-0.115,35.087-50.645,66.487-119.464,76.872l118.41-85.804C424.74,278.229,425.096,281.174,425.096,284.113z M422.89,256.778    l-43.946,31.845c3.29-6.099,5.056-12.572,5.056-19.307V237.97c0-3.548-0.513-7.031-1.464-10.434L422.89,256.778z" fill="#FFFFFF"/>
	</g>
</g>
<g>
	<g>
		<path d="M204.999,260.455c-4.228,2.457-4.893,6.049-1.492,8.012c3.408,1.969,9.607,1.572,13.836-0.886    C221.577,265.12,224.96,256,224.96,256S209.234,257.994,204.999,260.455z" fill="#FFFFFF"/>
	</g>
</g>
<g>
	<g>
		<path d="M193.034,232.934c-6.011-0.002-10.859,2.255-10.85,5.034c0.007,1.19,0.904,2.284,2.397,3.146    c2,1.155,5.07,1.894,8.502,1.894c6.005-0.004,19.538-5.041,19.538-5.041S199.031,232.933,193.034,232.934z" fill="#FFFFFF"/>
	</g>
</g>
<g>
	<g>
		<path d="M327.416,234.824c-1.999-1.155-5.068-1.894-8.501-1.894c-6.004,0.004-19.536,5.041-19.536,5.041    s13.589,5.035,19.594,5.031c6.004,0.005,10.851-2.251,10.836-5.035C329.803,236.778,328.908,235.685,327.416,234.824z" fill="#FFFFFF"/>
	</g>
</g>
<g>
	<g>
		<path d="M307.237,260.454c-4.256-2.457-20.006-4.45-20.006-4.45s3.494,9.117,7.75,11.573c4.263,2.461,10.451,2.858,13.837,0.89    C312.205,266.499,311.491,262.912,307.237,260.454z" fill="#FFFFFF"/>
	</g>
</g>
<g>
	<g>
		<path d="M256.153,263.096c0,0-8.65,7.856-8.638,11.333c0.01,1.988,1.297,3.765,3.296,4.918c1.492,0.862,3.381,1.376,5.433,1.374    c4.807,0,8.686-2.815,8.666-6.297C264.89,270.951,256.153,263.096,256.153,263.096z" fill="#FFFFFF"/>
	</g>
</g>
<g>
	<g>
		<circle cx="245.551" cy="185.731" r="7.837" fill="#FFFFFF"/>
	</g>
</g>
<g>
</g>
<g>
</g>
<g>
</g>
<g>
</g>
<g>
</g>
<g>
</g>
<g>
</g>
<g>
</g>
<g>
</g>
<g>
</g>
<g>
</g>
<g>
</g>
<g>
</g>
<g>
</g>
<g>
</g>
</svg>
