<?xml version="1.0" encoding="iso-8859-1"?>
<!-- Generator: Adobe Illustrator 18.1.1, SVG Export Plug-In . SVG Version: 6.00 Build 0)  -->
<svg xmlns="http://www.w3.org/2000/svg" xmlns:xlink="http://www.w3.org/1999/xlink" version="1.1" id="Capa_1" x="0px" y="0px" viewBox="0 0 21.465 21.465" style="enable-background:new 0 0 21.465 21.465;" xml:space="preserve" width="512px" height="512px">
<g>
	<path d="M8.855,8.526c-0.463,0.844-0.771,1.752-0.956,2.693C7.176,9.859,6.06,8.558,4.995,8.012   c0.788,1.506,1.876,3.239,2.729,4.398c-0.017,0.18-0.031,0.361-0.041,0.544L7.682,12.96l-0.001,0.022L7.68,12.99v0.005   l-0.001,0.032v0.006l-0.002,0.025l-0.002,0.029l-0.002,0.046c-0.002,0.052-0.006,0.101-0.007,0.148l-0.002,0.073v0.002l-0.003,0.07   v0.008v0.021l-0.001,0.01l-0.001,0.02v0.02v0.006l-0.001,0.023v0.006v0.004v0.035v0.006v0.047v0.004v0.017v0.01l-0.002,0.024v0.002   v0.021v0.014v0.013l-0.001,0.024v0.041c0,0.047,0,0.09,0,0.134l0.001,0.01c0.002,0.438,0.024,0.881,0.058,1.315   c-1.33-1.3-3.734-2.418-5.364-2.349c1.777,1.154,4.139,2.383,5.41,2.854c0.031,0.323,0.071,0.645,0.117,0.963   C2.939,18.747,2.344,14.712,0,11.788c1.543-0.557,2.846-0.796,3.941-0.768C3.599,9.538,3.8,7.692,3.502,5.879   C6.262,6.34,7.957,7.272,8.855,8.526z M21.465,4.194C19.1,10.81,20.781,18.384,9.154,16.67C8.08,9.295,10.754,4.049,21.465,4.194z    M18.216,7.403c-3.2,0.963-7.236,5.213-8.106,8.405C11.643,14.85,15.557,10.816,18.216,7.403z" fill="#FFFFFF"/>
</g>
<g>
</g>
<g>
</g>
<g>
</g>
<g>
</g>
<g>
</g>
<g>
</g>
<g>
</g>
<g>
</g>
<g>
</g>
<g>
</g>
<g>
</g>
<g>
</g>
<g>
</g>
<g>
</g>
<g>
</g>
</svg>
