<?xml version="1.0" encoding="iso-8859-1"?>
<!-- Generator: Adobe Illustrator 19.0.0, SVG Export Plug-In . SVG Version: 6.00 Build 0)  -->
<svg xmlns="http://www.w3.org/2000/svg" xmlns:xlink="http://www.w3.org/1999/xlink" version="1.1" id="Layer_1" x="0px" y="0px" viewBox="0 0 511.998 511.998" style="enable-background:new 0 0 511.998 511.998;" xml:space="preserve" width="512px" height="512px">
<g>
	<g>
		<polygon points="441.989,415.114 441.988,415.115 441.991,415.112   " fill="#FFFFFF"/>
	</g>
</g>
<g>
	<g>
		<path d="M511.735,258.37c-1.466-27.595-8.93-53.535-22.187-77.1c-14.146-25.145-34.213-46.248-59.644-62.723    c-25.19-16.317-50.467-28.548-77.273-37.39c-44.162-14.566-88.035-20.259-130.402-16.933    c-37.518,2.949-73.109,12.835-105.785,29.386C62.851,120.757,20.605,165.147,6.191,209.459    c-9.082,27.925-8.168,50.155,2.718,66.072c16.949,24.781,51.782,26.754,72.594,27.933l2.23,0.128    c1.301,0.077,2.646,0.147,4.033,0.221c28.986,1.536,72.791,3.857,117.104,71.174c32.155,48.847,75.842,65.644,106.829,71.134    c9.775,1.732,19.725,2.575,29.66,2.575c34.96,0,69.676-10.454,95.31-29.457c1.784-1.322,3.574-2.71,5.321-4.127    C488.858,377.135,514.932,318.54,511.735,258.37z M430.496,400.932c-0.001,0.001-0.002,0.001-0.002,0.001    c-1.543,1.251-3.12,2.477-4.695,3.641c-29.027,21.519-71.526,30.55-110.917,23.574c-27.456-4.864-66.183-19.777-94.766-63.198    c-21.599-32.811-45.348-54.741-72.609-67.045c-23.115-10.432-43.727-11.525-58.778-12.322c-1.353-0.072-2.664-0.14-3.932-0.215    l-2.262-0.129c-17.459-0.989-46.68-2.644-58.56-20.013c-7.522-10.999-7.666-27.863-0.426-50.12    c10.163-31.245,42.07-75.29,101.142-105.213c29.037-14.708,69.857-28.455,121.009-28.455c30.23,0,64.078,4.806,101.213,17.055    c25.656,8.463,48.873,19.703,73.066,35.375c44.653,28.928,70.766,73.486,73.527,125.471    C496.394,313.689,472.838,366.622,430.496,400.932z" fill="#FFFFFF"/>
	</g>
</g>
<g>
	<g>
		<path d="M481.353,259.983c-2.548-47.987-26.696-89.147-67.991-115.901c-23.295-15.091-45.621-25.905-70.261-34.032    c-32.843-10.831-65.56-16.325-97.243-16.325c-65.896,0-113.753,23.253-142.298,42.761c-33.527,22.913-59.111,53.711-68.438,82.385    c-4.133,12.705-7.679,29.87-1.101,39.486c7.056,10.316,24.774,13.351,49.207,14.733c0,0,4.828,0.273,6.151,0.342    c15.108,0.801,37.938,2.01,63.138,13.383c29.424,13.28,54.86,36.649,77.764,71.444c34.383,52.234,84.439,60.037,111.215,60.04    h0.012c28.393,0,57.192-8.784,77.036-23.496c1.423-1.054,2.865-2.174,4.289-3.326    C462.158,359.611,484.035,310.455,481.353,259.983z M411.342,377.295c-1.219,0.988-2.452,1.944-3.667,2.844    c-16.814,12.464-41.549,19.906-66.167,19.906h-0.01c-23.103-0.003-66.292-6.737-95.969-51.823    c-24.863-37.77-52.83-63.299-85.503-78.045c-28.322-12.782-53.212-14.101-69.678-14.974c-1.308-0.071-6.091-0.34-6.09-0.34    c-27.752-1.57-33.82-5.217-35.139-6.779c-0.685-1.508-1.456-8.754,3.364-23.567c8.122-24.971,31.067-52.246,61.378-72.96    c26.418-18.055,70.764-39.577,131.997-39.577c29.737,0,60.53,5.184,91.525,15.407c23.117,7.624,44.106,17.797,66.054,32.016    c36.259,23.49,57.457,59.554,59.688,101.548C465.499,305.606,446.14,349.097,411.342,377.295z" fill="#FFFFFF"/>
	</g>
</g>
<g>
	<g>
		<path d="M357.256,220.773c-31.202,0-56.587,25.385-56.587,56.587c0,31.202,25.385,56.587,56.587,56.587    s56.587-25.385,56.587-56.587C413.843,246.158,388.458,220.773,357.256,220.773z M357.256,315.692    c-21.136,0-38.332-17.196-38.332-38.332s17.196-38.332,38.332-38.332s38.332,17.196,38.332,38.332    S378.392,315.692,357.256,315.692z" fill="#FFFFFF"/>
	</g>
</g>
<g>
	<g>
		<path d="M190.25,134.388c-4.358-2.528-9.945-1.044-12.474,3.316l-52.936,91.269c-2.529,4.36-1.044,9.945,3.316,12.474    c1.441,0.837,3.017,1.234,4.571,1.234c3.147,0,6.211-1.631,7.904-4.549l52.936-91.269    C196.095,142.502,194.61,136.917,190.25,134.388z" fill="#FFFFFF"/>
	</g>
</g>
<g>
	<g>
		<path d="M267.357,136.214c-4.357-2.528-9.945-1.044-12.474,3.316l-69.846,120.424c-2.529,4.36-1.044,9.945,3.316,12.474    c1.441,0.837,3.017,1.234,4.571,1.234c3.147,0,6.211-1.631,7.904-4.549l69.846-120.424    C273.202,144.327,271.718,138.743,267.357,136.214z" fill="#FFFFFF"/>
	</g>
</g>
<g>
	<g>
		<path d="M344.487,153.394c-4.351-2.545-9.94-1.078-12.486,3.272l-91.75,156.932c-2.545,4.351-1.079,9.942,3.272,12.486    c1.448,0.847,3.033,1.249,4.598,1.249c3.136,0,6.19-1.619,7.887-4.522l91.75-156.932    C350.304,161.528,348.839,155.938,344.487,153.394z" fill="#FFFFFF"/>
	</g>
</g>
<g>
	<g>
		<path d="M331.425,338.791c-4.351-2.547-9.942-1.079-12.486,3.272l-9.02,15.429c-2.545,4.351-1.079,9.942,3.272,12.486    c1.448,0.847,3.034,1.249,4.599,1.249c3.136,0,6.19-1.619,7.887-4.522l9.02-15.429    C337.242,346.925,335.777,341.334,331.425,338.791z" fill="#FFFFFF"/>
	</g>
</g>
<g>
	<g>
		<path d="M418.254,189.869c-4.349-2.547-9.94-1.079-12.486,3.272l-11.307,19.34c-2.545,4.351-1.079,9.942,3.272,12.486    c1.448,0.847,3.033,1.249,4.598,1.249c3.136,0,6.19-1.619,7.887-4.522l11.307-19.34    C424.073,198.003,422.607,192.413,418.254,189.869z" fill="#FFFFFF"/>
	</g>
</g>
<g>
</g>
<g>
</g>
<g>
</g>
<g>
</g>
<g>
</g>
<g>
</g>
<g>
</g>
<g>
</g>
<g>
</g>
<g>
</g>
<g>
</g>
<g>
</g>
<g>
</g>
<g>
</g>
<g>
</g>
</svg>
