<?xml version="1.0" encoding="iso-8859-1"?>
<!-- Generator: Adobe Illustrator 19.0.0, SVG Export Plug-In . SVG Version: 6.00 Build 0)  -->
<svg xmlns="http://www.w3.org/2000/svg" xmlns:xlink="http://www.w3.org/1999/xlink" version="1.1" id="Layer_1" x="0px" y="0px" viewBox="0 0 512 512" style="enable-background:new 0 0 512 512;" xml:space="preserve" width="512px" height="512px">
<g transform="translate(1 1)">
	<g>
		<g>
			<path d="M408.158,470.893v-299.52c0-12.8-6.827-24.747-17.92-31.573s-23.893-14.507-33.28-24.747l-7.68-7.68     c-8.533-9.387-21.333-14.507-34.133-14.507V67.093c9.816-1.203,17.067-9.232,17.067-19.453V18.627     C332.211,7.533,323.678-1,312.585-1H206.771c-11.093,0-19.627,8.533-19.627,19.627V47.64c0,10.221,7.251,18.251,17.067,19.453     v25.773h-3.413c-11.093,0-22.187,4.267-30.72,11.947l-9.387,8.533c-11.947,10.24-25.6,18.773-40.96,27.307     c-11.093,5.973-17.92,18.773-17.92,31.573v299.52c0,22.187,17.067,39.253,39.253,39.253h228.693     C391.945,511,409.011,493.933,408.158,470.893z M204.211,18.627c0-1.707,0.853-2.56,2.56-2.56h23.04V24.6     c0,5.12,3.413,8.533,8.533,8.533s8.533-3.413,8.533-8.533v-8.533h25.6V24.6c0,5.12,3.413,8.533,8.533,8.533     c5.12,0,8.533-3.413,8.533-8.533v-8.533h23.04c1.707,0,2.56,0.853,2.56,2.56V47.64c0,1.707-0.853,2.56-2.56,2.56H206.771     c-1.707,0-2.56-0.853-2.56-2.56V18.627z M221.278,67.267h76.8v25.6h-76.8V67.267z M392.798,471.747     c0,12.8-10.24,22.187-22.187,22.187H141.065c-12.8,0-22.187-9.387-22.187-22.187v-299.52c0-6.827,4.267-13.653,10.24-17.067     c14.507-8.533,29.867-17.067,43.52-29.013l9.387-8.533c5.12-5.12,12.8-7.68,19.627-7.68h2.56h110.933h0.853     c7.68,0,15.36,3.413,22.187,9.387l7.68,7.68c11.093,11.947,24.747,20.48,37.547,28.16c5.973,3.413,9.387,10.24,9.387,17.067     V471.747z" fill="#FFFFFF"/>
			<path d="M341.598,195.267h-1.707c-17.067,0-32.427-7.68-40.96-20.48c-9.387-13.653-25.6-22.187-42.667-22.187     s-33.28,7.68-42.667,22.187c-8.533,12.8-23.893,20.48-40.96,20.48h-1.707c-10.24,0-17.92,7.68-17.92,17.92v220.16     c0,10.24,7.68,17.92,17.92,17.92h168.96c10.24,0,17.92-7.68,19.627-17.067V213.187     C359.518,202.947,350.985,195.267,341.598,195.267z M339.891,434.2l-169.813-0.853l0.853-221.013h1.707     c22.187,0,42.667-10.24,54.613-27.307c5.973-9.387,17.067-15.36,28.16-15.36c11.093,0,22.187,5.973,28.16,15.36     c11.947,17.067,32.427,27.307,54.613,27.307l2.56,0.853L339.891,434.2z" fill="#FFFFFF"/>
			<path d="M306.611,302.787v-52.053l-51.2-30.72l-51.2,30.72v52.053l51.2,30.72L306.611,302.787z M221.278,259.267l34.133-20.48     l34.133,20.48v33.28l-34.133,20.48l-34.133-20.48V259.267z" fill="#FFFFFF"/>
			<path d="M221.278,357.4c-5.12,0-8.533,3.413-8.533,8.533s3.413,8.533,8.533,8.533h68.267c5.12,0,8.533-3.413,8.533-8.533     s-3.413-8.533-8.533-8.533H221.278z" fill="#FFFFFF"/>
			<path d="M306.611,391.533h-102.4c-5.12,0-8.533,3.413-8.533,8.533c0,5.12,3.413,8.533,8.533,8.533h102.4     c5.12,0,8.533-3.413,8.533-8.533C315.145,394.947,311.731,391.533,306.611,391.533z" fill="#FFFFFF"/>
		</g>
	</g>
</g>
<g>
</g>
<g>
</g>
<g>
</g>
<g>
</g>
<g>
</g>
<g>
</g>
<g>
</g>
<g>
</g>
<g>
</g>
<g>
</g>
<g>
</g>
<g>
</g>
<g>
</g>
<g>
</g>
<g>
</g>
</svg>
