<?xml version="1.0" encoding="iso-8859-1"?>
<!-- Generator: Adobe Illustrator 19.0.0, SVG Export Plug-In . SVG Version: 6.00 Build 0)  -->
<svg xmlns="http://www.w3.org/2000/svg" xmlns:xlink="http://www.w3.org/1999/xlink" version="1.1" id="Capa_1" x="0px" y="0px" viewBox="0 0 480 480" style="enable-background:new 0 0 480 480;" xml:space="preserve" width="512px" height="512px">
<g>
	<g>
		<path d="M475.576,72.84c-2.712-1.352-5.96-1.072-8.376,0.76l-13.456,10.096c-9.016,6.76-16.84,14.72-23.56,23.6    C386.704,44.928,316.512,8,240,8C180.248,8,123.008,31.264,80,72.32V72H64v20.072V144H48V72H32v72H16V72H0v80v16    c0,10.24,6.472,18.936,15.512,22.376L2.68,367.456c-1.04,12.512,4.192,27.032,13.336,36.96c6.44,7,14.328,11.056,22.36,11.536    c0.528,0.112,1.072,0.168,1.624,0.168c8.568,0,17.064-4.112,23.928-11.568c2.048-2.224,3.872-4.704,5.504-7.32    C113.344,444.896,174.824,472,240,472c66.424,0,129.912-29.064,173.704-78.512c1.448,3.96,3.504,7.712,6.352,10.936    c6.496,7.36,15.848,11.576,25.664,11.576h0.04c18.88,0,34.24-15.36,34.24-34.24V248V80C480,76.968,478.288,74.2,475.576,72.84z     M61.104,374.656c-0.152,1.024-0.472,2.096-0.736,3.16c-1.424,5.768-4.24,11.6-8.208,15.904c-2.504,2.72-6.4,5.92-11.104,6.352    C40.704,400.024,40.352,400,40,400c-5.208,0-9.512-3.496-12.2-6.416c-6.072-6.592-9.84-16.784-9.16-24.888L31.44,192h17.12    l12.816,176.784C61.528,370.64,61.392,372.64,61.104,374.656z M64,168c0,4.416-3.592,8-8,8H24c-4.408,0-8-3.584-8-8v-8h48V168z     M418.864,302.04l-6.4,67.872C371.776,423.856,307.472,456,240,456c-63.176,0-122.624-27.344-163.776-75.168    c0-0.008,0-0.016,0-0.024c0.472-2.064,0.784-4.128,0.976-6.176c0.032-0.36,0.072-0.712,0.104-1.072    c0.136-2.04,0.184-4.064,0.024-6.024L64.496,190.448c0.176-0.064,0.328-0.168,0.504-0.232c0.368-0.152,0.704-0.336,1.064-0.496    c0.944-0.44,1.856-0.928,2.728-1.48c0.376-0.24,0.752-0.48,1.112-0.744c0.88-0.624,1.704-1.312,2.488-2.048    c0.24-0.224,0.504-0.432,0.736-0.664c0.976-1,1.872-2.072,2.664-3.224c0.168-0.24,0.296-0.504,0.448-0.752    c0.6-0.936,1.128-1.912,1.592-2.936c0.192-0.416,0.352-0.84,0.52-1.264c0.368-0.952,0.664-1.928,0.912-2.928    c0.104-0.424,0.224-0.84,0.304-1.28C79.824,170.96,80,169.504,80,168v-16V95.128C120.976,49.88,179.12,24,240,24    c73.36,0,140.536,36.424,180.68,97.68l-4.872,8.52C405.472,148.312,400,168.896,400,189.744v21    c0,10.688,4.16,20.736,11.712,28.288L423.68,251L418.864,302.04z M464,381.76c0,10.064-8.184,18.24-18.24,18.24h-0.04    c-5.224,0-10.208-2.248-13.672-6.168c-3.464-3.912-5.072-9.144-4.4-14.568l0.528-5.608v-0.008l8.904-94.424l2.2-23.224H464V381.76    z M464,240h-28.688l-12.288-12.28c-4.528-4.536-7.024-10.56-7.024-16.976v-21c0-18.064,4.736-35.904,13.704-51.6l5.744-10.048    l1.512-2.336c0.016-0.024,0.016-0.048,0.032-0.072c6.896-11.344,15.696-21.2,26.352-29.192L464,96V240z" fill="#FFFFFF"/>
	</g>
</g>
<g>
	<g>
		<path d="M293.6,117.112c-4.12-4.576-8.016-8.904-10.448-13.12c-2.584-4.472-4.496-10.176-6.504-16.232    c-4.032-12.096-8.608-25.808-20.624-32.76c-11.648-6.744-25.032-4.08-37.984-1.504C211.6,54.792,205.512,56,200,56    c-5.512,0-11.6-1.208-18.04-2.496c-12.952-2.576-26.328-5.24-37.976,1.504c-12.016,6.952-16.592,20.664-20.624,32.768    c-2.016,6.048-3.92,11.76-6.504,16.224c-2.44,4.208-6.328,8.528-10.448,13.112C97.776,126.68,88,137.544,88,152    s9.776,25.312,18.4,34.888c4.12,4.584,8.016,8.912,10.448,13.12c2.584,4.472,4.496,10.176,6.504,16.232    c4.032,12.096,8.608,25.808,20.624,32.76c11.64,6.736,25.04,4.088,37.984,1.504C188.4,249.208,194.488,248,200,248    c5.512,0,11.6,1.208,18.04,2.496c6.864,1.368,13.856,2.76,20.648,2.76c6.008,0,11.856-1.096,17.328-4.256    c12.016-6.952,16.592-20.664,20.624-32.768c2.016-6.048,3.92-11.76,6.504-16.224c2.44-4.208,6.328-8.528,10.448-13.112    C302.224,177.32,312,166.456,312,152S302.224,126.688,293.6,117.112z M281.704,176.192c-4.488,4.992-9.128,10.144-12.4,15.8    c-3.4,5.88-5.656,12.64-7.832,19.184c-3.44,10.312-6.688,20.056-13.464,23.976c-6.408,3.72-16.328,1.744-26.832-0.352    c-6.928-1.376-14.088-2.8-21.176-2.8s-14.248,1.424-21.168,2.808c-10.496,2.088-20.416,4.072-26.84,0.352    c-6.768-3.92-10.016-13.664-13.456-23.976c-2.176-6.536-4.44-13.304-7.832-19.184c-3.28-5.656-7.92-10.824-12.408-15.808    C110.944,168.024,104,160.312,104,152s6.944-16.032,14.296-24.192c4.488-4.992,9.128-10.144,12.4-15.8    c3.4-5.88,5.656-12.64,7.832-19.184c3.44-10.312,6.688-20.056,13.464-23.976c2.624-1.512,5.824-2.088,9.408-2.088    c5.2,0,11.208,1.2,17.424,2.44C185.752,70.576,192.912,72,200,72s14.248-1.424,21.168-2.808    c10.496-2.088,20.416-4.064,26.84-0.352c6.768,3.92,10.016,13.664,13.456,23.976c2.176,6.536,4.44,13.304,7.832,19.184    c3.28,5.656,7.92,10.824,12.408,15.808C289.056,135.976,296,143.688,296,152S289.056,168.032,281.704,176.192z" fill="#FFFFFF"/>
	</g>
</g>
<g>
	<g>
		<path d="M200,104c-26.472,0-48,21.528-48,48s21.528,48,48,48s48-21.528,48-48S226.472,104,200,104z M200,184    c-17.648,0-32-14.352-32-32s14.352-32,32-32s32,14.352,32,32S217.648,184,200,184z" fill="#FFFFFF"/>
	</g>
</g>
<g>
	<g>
		<path d="M312,272H168c-3.28,0-6.224,2-7.432,5.048c-1.208,3.04-0.44,6.512,1.944,8.768l2.312,2.184H96    c-3.28,0-6.224,2-7.432,5.048c-1.208,3.04-0.44,6.512,1.944,8.768l144,136C236.024,439.248,238,440,240,440    c1.072,0,2.152-0.208,3.168-0.656c2.936-1.256,4.832-4.152,4.832-7.344v-65.448l58.504,55.256C308.024,423.248,310,424,312,424    c1.072,0,2.152-0.208,3.168-0.656c2.936-1.256,4.832-4.152,4.832-7.344V280C320,275.576,316.416,272,312,272z M232,413.44    L116.12,304h65.64L232,351.448V413.44z M304,397.44L188.12,288H304V397.44z" fill="#FFFFFF"/>
	</g>
</g>
<g>
	<g>
		<path d="M360,88c-13.232,0-24,10.768-24,24v144c0,13.232,10.768,24,24,24s24-10.768,24-24V112C384,98.768,373.232,88,360,88z     M368,256c0,4.416-3.592,8-8,8c-4.408,0-8-3.584-8-8v-36.688l16,16V256z M368,212.688l-16-16v-41.376l16,16V212.688z M368,148.688    l-16-16V112c0-4.416,3.592-8,8-8c4.408,0,8,3.584,8,8V148.688z" fill="#FFFFFF"/>
	</g>
</g>
<g>
</g>
<g>
</g>
<g>
</g>
<g>
</g>
<g>
</g>
<g>
</g>
<g>
</g>
<g>
</g>
<g>
</g>
<g>
</g>
<g>
</g>
<g>
</g>
<g>
</g>
<g>
</g>
<g>
</g>
</svg>
