<?xml version="1.0" encoding="iso-8859-1"?>
<!-- Generator: Adobe Illustrator 19.0.0, SVG Export Plug-In . SVG Version: 6.00 Build 0)  -->
<svg xmlns="http://www.w3.org/2000/svg" xmlns:xlink="http://www.w3.org/1999/xlink" version="1.1" id="Capa_1" x="0px" y="0px" viewBox="0 0 512 512" style="enable-background:new 0 0 512 512;" xml:space="preserve" width="512px" height="512px">
<g>
	<g>
		<path d="M510.015,295.902c-2.32-3.63-6.276-5.797-10.584-5.797h-17.21c-0.423-5.034-1.251-10.019-2.496-14.889    c-1.029-4.022-5.122-6.451-9.144-5.42c-4.022,1.028-6.449,5.122-5.42,9.144c0.935,3.656,1.591,7.39,1.971,11.165h-13.893    c-3.797-30.581-29.925-54.334-61.517-54.334c-31.588,0-57.713,23.753-61.51,54.334h-6.376c2.604-5.361,4.074-11.371,4.074-17.721    c0-4.288-0.671-8.422-1.906-12.307c13.098-22.741,37.642-38.093,65.717-38.093c19.599,0,38.192,7.453,52.356,20.986    c3.001,2.869,7.76,2.76,10.627-0.242c2.868-3.001,2.76-7.759-0.242-10.627c-6.409-6.124-13.577-11.206-21.279-15.164    c-16.621-49.352-63.328-84.995-118.212-84.995c-17.681,0-34.508,3.708-49.757,10.375c-16.56-18.576-40.65-30.298-67.435-30.298    c-3.065,0-6.155,0.156-9.184,0.462c-4.13,0.418-7.139,4.105-6.721,8.235c0.417,4.13,4.097,7.138,8.235,6.721    c2.528-0.256,5.109-0.385,7.67-0.385c20.929,0,39.879,8.59,53.543,22.416c-7.604,4.536-14.685,9.859-21.135,15.854    c-8.669-7.593-20.002-12.213-32.408-12.213c-16.229,0-30.642,7.892-39.625,20.034c-1.33-0.042-2.664-0.066-4.003-0.066    c-9.255,0-18.275,1.022-26.96,2.944c4.869-13.103,13.362-24.712,24.888-33.524c3.298-2.522,3.927-7.239,1.405-10.537    c-2.522-3.297-7.239-3.927-10.537-1.406c-5.573,4.261-10.544,9.076-14.892,14.324c-7.433-7.947-17.988-12.938-29.702-12.938    c-22.448,0-40.71,18.263-40.71,40.71c0,12.52,5.687,23.73,14.607,31.203c-24.399,21.299-40.461,51.912-42.56,86.247H12.569    c-4.308,0-8.265,2.167-10.584,5.797c-2.32,3.63-2.625,8.131-0.816,12.041l16.605,35.879c4.918,10.626,15.66,17.492,27.369,17.492    h24.704v19.515c0,10.563,8.594,19.156,19.156,19.156h333.995c10.563,0,19.156-8.594,19.156-19.156v-19.511h24.704    c11.708,0,22.451-6.866,27.369-17.492l16.604-35.879C512.64,304.033,512.335,299.532,510.015,295.902z M391.721,250.805    c23.29,0,42.672,17.037,46.349,39.301h-12.217c-3.511-15.608-17.476-27.307-34.132-27.307c-16.652,0-30.614,11.699-34.124,27.307    H345.38C349.056,267.842,368.435,250.805,391.721,250.805z M410.138,290.105h-36.827c3.014-7.2,10.129-12.274,18.41-12.274    C400.005,277.831,407.122,282.905,410.138,290.105z M317.597,245.345c-5.731-6.436-13.47-11.038-22.222-12.832    c5.354-4.358,12.169-6.986,19.595-6.986c5.948,0,11.508,1.681,16.239,4.586C326.127,234.663,321.553,239.769,317.597,245.345z     M312.875,272.384c0,6.867-2.715,13.108-7.122,17.721h-37.111c-4.406-4.612-7.122-10.853-7.122-17.721    c0-14.159,11.519-25.677,25.677-25.677C301.356,246.707,312.875,258.226,312.875,272.384z M343.814,220.653    c-7.907-6.349-17.936-10.159-28.844-10.159c-17.026,0-31.916,9.274-39.913,23.03c-3.964,1.241-7.666,3.079-11.008,5.399    c-2.881-5.358-6.136-10.487-9.742-15.341c11.741-21.468,34.52-36.069,60.664-36.069c20.419,0,38.788,8.907,51.452,23.031    C358.37,212.883,350.78,216.31,343.814,220.653z M314.97,146.978c43.694,0,81.479,25.694,99.094,62.757    c-7.229-1.826-14.721-2.782-22.344-2.782c-2.891,0-5.752,0.137-8.575,0.403c-15.306-21.114-40.162-34.875-68.176-34.875    c-29.782,0-55.981,15.564-70.941,38.976c-5.936-6.178-12.498-11.745-19.587-16.602    C244.213,165.975,277.406,146.978,314.97,146.978z M197.778,168.145c8.385,0,16.073,3.031,22.033,8.049    c-2.946,3.48-5.715,7.116-8.272,10.907c-10.696-5.569-22.294-9.634-34.513-11.912C182.789,170.78,189.978,168.145,197.778,168.145    z M98.353,146.978c8.579,0,16.18,4.235,20.844,10.718c-4.176,7.333-7.316,15.226-9.289,23.502    c-8.965,3.413-17.433,7.839-25.276,13.125c-7.174-4.558-11.958-12.556-11.958-21.666    C72.675,158.496,84.194,146.978,98.353,146.978z M154.15,188.114c43.482,0,81.128,25.438,98.853,62.212    c-4.118,6.361-6.516,13.934-6.516,22.059c0,6.35,1.47,12.359,4.074,17.721h-12.615c-3.894-42.822-39.977-76.489-83.796-76.489    c-43.814,0-79.892,33.667-83.785,76.489H44.749C48.701,233.2,96.258,188.114,154.15,188.114z M154.15,251.63    c-22.832,0-41.832,16.669-45.501,38.475H85.454c3.83-34.522,33.176-61.456,68.697-61.456c35.527,0,64.877,26.935,68.708,61.456    h-23.197C195.993,268.3,176.988,251.63,154.15,251.63z M184.32,290.105h-60.328c3.429-13.458,15.648-23.442,30.159-23.442    C168.666,266.663,180.89,276.647,184.32,290.105z M427.121,380.828c0,2.273-1.85,4.123-4.123,4.123H89.002    c-2.274,0-4.123-1.85-4.123-4.123v-19.515h342.242V380.828z M480.584,337.507c-2.467,5.33-7.855,8.773-13.726,8.773h-32.22H77.363    h-32.22c-5.872,0-11.26-3.444-13.726-8.773l-14.981-32.369l458.6,0.162c0.532,0,1.05-0.057,1.551-0.162h18.978L480.584,337.507z" fill="#FFFFFF"/>
	</g>
</g>
<g>
</g>
<g>
</g>
<g>
</g>
<g>
</g>
<g>
</g>
<g>
</g>
<g>
</g>
<g>
</g>
<g>
</g>
<g>
</g>
<g>
</g>
<g>
</g>
<g>
</g>
<g>
</g>
<g>
</g>
</svg>
