<?xml version="1.0" encoding="iso-8859-1"?>
<!-- Generator: Adobe Illustrator 19.0.0, SVG Export Plug-In . SVG Version: 6.00 Build 0)  -->
<svg xmlns="http://www.w3.org/2000/svg" xmlns:xlink="http://www.w3.org/1999/xlink" version="1.1" id="Capa_1" x="0px" y="0px" viewBox="0 0 511.976 511.976" style="enable-background:new 0 0 511.976 511.976;" xml:space="preserve" width="512px" height="512px">
<g transform="translate(0 -1)">
	<g>
		<g>
			<path d="M510.339,265.206c-2.565-5.037-7.738-8.21-13.391-8.214h-37.144c10.286-15.247,16.498-32.873,18.044-51.2     c-0.001-3.329-1.937-6.353-4.958-7.75c-17.798-9.126-38.359-11.286-57.665-6.06l56.949-50.498     c15.115-10.988,21.746-30.254,16.598-48.217l3.452,1.151c2.894,0.975,6.088,0.329,8.375-1.694     c2.287-2.023,3.319-5.114,2.705-8.106c-0.614-2.991-2.781-5.426-5.68-6.384l-12.511-4.169l15.844-15.839     c3.281-3.341,3.256-8.701-0.054-12.012s-8.671-3.335-12.012-0.054l-15.838,15.832l-4.162-12.499     c-1.491-4.474-6.326-6.891-10.8-5.4c-4.474,1.491-6.891,6.326-5.4,10.8l2.282,6.852c-17.173-3.72-34.921,3.072-45.223,17.307     l-61.114,68.924c-1.859-6.531-5.471-12.427-10.444-17.05c-2.088-1.706-4.859-2.327-7.475-1.675     c-27.324,7.419-53.125,19.597-76.221,35.974c-6.505-32.404-32.982-57.031-65.771-61.175c3.64-15.361,17.34-26.22,33.126-26.257     c4.713,0,8.533-3.82,8.533-8.533s-3.82-8.533-8.533-8.533c-17.173,0.009-33.197,8.631-42.666,22.958     c-9.467-14.326-25.488-22.948-42.659-22.958c-4.713,0-8.533,3.82-8.533,8.533s3.82,8.533,8.533,8.533     c15.784,0.039,29.48,10.899,33.118,26.258c-37.568,4.755-66.067,36.176-67.144,74.028     c-24.214-19.366-43.694-15.003-44.841-14.694c-1.815,0.449-3.431,1.482-4.6,2.942c-19.313,26.052-24.768,59.862-14.63,90.667     H15.031c-5.996-0.004-11.418,3.561-13.792,9.067c-2.115,4.877-1.493,10.509,1.633,14.808l2.75,6.717     c24.649,59.887,67.443,110.546,122.367,144.858v13.25c0.016,13.601,11.04,24.622,24.642,24.633h206.717     c13.601-0.011,24.626-11.032,24.642-24.633v-13.25c54.916-34.3,97.701-84.949,122.342-144.825l2.775-6.75     C512.428,276.293,512.904,270.243,510.339,265.206z M460.131,211.158c-3.462,16.618-10.547,32.267-20.75,45.833h-19.15     c-0.059-0.152-0.142-0.291-0.202-0.442c-1.196-3.021-2.547-5.978-4.047-8.86c-0.236-0.454-0.497-0.893-0.742-1.343     c-1.454-2.692-3.025-5.293-4.716-7.804c-0.163-0.241-0.315-0.487-0.48-0.727c-4.003-5.826-8.655-11.178-13.868-15.952     C413.246,205.446,438.646,201.194,460.131,211.158z M341.803,193.446c0.498-0.98,1.009-1.963,1.459-2.919     c0.942-2.011,1.8-4.005,2.559-5.978c0.547-1.415,0.987-2.767,1.429-4.125c0.263-0.811,0.527-1.623,0.757-2.428     c0.458-1.589,0.855-3.134,1.179-4.64c0.029-0.134,0.076-0.272,0.103-0.406l15.251-17.199l13.408,13.407     c3.339,3.293,8.709,3.275,12.025-0.041c3.316-3.316,3.335-8.687,0.041-12.025l-14.132-14.132l16.731-18.869l10.935,10.934     c3.339,3.293,8.709,3.275,12.025-0.041s3.335-8.687,0.041-12.025l-11.659-11.659l12.721-14.346l12.471,12.471     c3.339,3.293,8.709,3.275,12.025-0.041c3.316-3.316,3.335-8.687,0.041-12.025l-13.063-13.063     c4.344-3.681,9.724-5.922,15.396-6.413c12.383-1.021,23.923,6.352,28.199,18.018s0.235,24.75-9.874,31.974     c-0.244,0.172-0.478,0.359-0.7,0.558l-87.937,77.976c-10.466-4.992-21.767-7.998-33.33-8.866l-0.217-0.027     C340.456,196.148,341.116,194.799,341.803,193.446z M338.468,214.724c2.978,0.211,5.942,0.592,8.876,1.142     c0.658,0.126,1.306,0.277,1.958,0.419c3.197,0.698,6.347,1.598,9.431,2.694c0.508,0.182,1.015,0.362,1.518,0.554     c3.261,1.237,6.431,2.702,9.487,4.383c3.389,1.85,6.633,3.955,9.702,6.298c2.666,2.054,5.197,4.278,7.576,6.659     c0.384,0.385,0.799,0.735,1.176,1.128c2.351,2.467,4.535,5.089,6.535,7.847c0.289,0.397,0.627,0.75,0.909,1.153     c2.238,3.173,4.23,6.513,5.958,9.991H264.007c6.491-13.123,16.609-24.11,29.154-31.658c0.283-0.171,0.59-0.299,0.875-0.465     c2.829-1.661,5.761-3.138,8.779-4.422c0.628-0.265,1.291-0.456,1.927-0.704c2.736-1.089,5.533-2.019,8.377-2.785     c0.93-0.244,1.89-0.396,2.832-0.606c2.647-0.611,5.325-1.08,8.022-1.407c1.134-0.129,2.291-0.162,3.438-0.242     c2.681-0.206,5.371-0.269,8.059-0.189C336.478,214.549,337.469,214.651,338.468,214.724z M253.121,188.547     c22.355-19.018,48.48-33.092,76.66-41.297c3.66,6.742,4.638,14.618,2.736,22.05c-0.319,1.584-0.703,3.189-1.199,4.831     c-0.246,0.822-0.531,1.67-0.829,2.528c-0.673,1.919-1.439,3.867-2.345,5.858c-0.248,0.548-0.495,1.095-0.765,1.656     c-1.065,2.208-2.286,4.463-3.629,6.752c-0.301,0.515-0.575,1.015-0.893,1.538c-1.165,1.912-2.518,3.876-3.871,5.84     c-4.077,0.605-8.11,1.478-12.072,2.614l-0.181,0.052c-23.623,6.754-43.622,22.563-55.648,43.988     c-0.275,0.486-0.542,0.974-0.809,1.466c-1.787,3.29-3.377,6.683-4.761,10.162c-0.056,0.141-0.136,0.266-0.191,0.407h-16.541     c-0.194-1.011-0.475-2.039-0.628-3.042c-0.09-0.58-0.188-1.163-0.264-1.741c-0.403-3.022-0.614-6.066-0.632-9.115     c-0.001-0.27,0.017-0.536,0.019-0.805c0.149-13.01,4.072-25.697,11.292-36.521c0.182-0.279,0.362-0.558,0.547-0.834     C243.147,198.958,247.846,193.46,253.121,188.547z M130.683,145.225c11.226-15.593,29.284-24.815,48.498-24.766     c32.33,0.087,58.748,25.833,59.667,58.15c-0.331,0.33-0.594,0.68-0.919,1.011c-2.055,2.092-4.017,4.263-5.914,6.505     c-0.598,0.709-1.196,1.417-1.769,2.133c-1.784,2.221-3.453,4.523-5.051,6.888c-0.462,0.687-0.932,1.371-1.372,2.064     c-0.66,1.033-1.413,1.998-2.033,3.058c-6.367,10.76-10.222,22.818-11.278,35.276c-0.016,0.177-0.022,0.357-0.036,0.535     c-0.238,3.054-0.31,6.119-0.215,9.181c0.017,0.619,0.032,1.237,0.061,1.859c0.139,2.714,0.413,5.453,0.806,8.212     c0.078,0.557,0.075,1.103,0.163,1.661h-11.508c-0.316-0.778-0.769-1.473-1.112-2.235c-0.653-1.451-1.363-2.85-2.111-4.242     c-0.93-1.728-1.917-3.4-2.987-5.031c-0.86-1.314-1.744-2.592-2.69-3.838c-1.179-1.555-2.431-3.029-3.733-4.473     c-1.035-1.147-2.067-2.278-3.175-3.353c-1.41-1.367-2.901-2.625-4.421-3.866c-1.173-0.959-2.325-1.927-3.558-2.807     c-1.636-1.167-3.356-2.189-5.089-3.21c-1.265-0.745-2.493-1.531-3.804-2.195c-1.876-0.95-3.834-1.715-5.796-2.492     c-1.288-0.51-2.534-1.096-3.855-1.528c-2.247-0.691-4.529-1.264-6.835-1.719c-1.144-0.246-2.248-0.607-3.409-0.794     c-3.532-0.58-7.104-0.877-10.683-0.886c-1.233,0-2.433,0.05-3.583,0.125c-1.117-1.847-2.309-3.676-3.508-5.517     c-0.673-1.034-1.345-2.046-2.015-3.034c-1.617-2.379-3.231-4.701-4.835-6.823C116.44,180.869,119.456,160.818,130.683,145.225z      M121.725,233.689c0.106-0.033,0.207-0.077,0.313-0.109c2.346-0.693,4.738-1.215,7.159-1.564c0.681-0.098,1.508-0.19,2.307-0.283     c4.214-0.541,8.486-0.442,12.671,0.294c0.792,0.122,1.56,0.322,2.342,0.481c1.708,0.338,3.398,0.763,5.063,1.273     c0.862,0.27,1.711,0.574,2.556,0.888c1.561,0.581,3.085,1.242,4.578,1.968c0.779,0.38,1.565,0.745,2.323,1.163     c1.638,0.913,3.225,1.915,4.754,2.999c0.505,0.355,1.043,0.661,1.536,1.033c1.981,1.496,3.852,3.132,5.599,4.895     c0.409,0.413,0.76,0.882,1.155,1.309c1.307,1.399,2.535,2.87,3.678,4.405c0.518,0.703,0.984,1.445,1.466,2.177     c0.505,0.766,0.945,1.577,1.409,2.372H92.349c0.205-0.352,0.381-0.722,0.594-1.069c0.605-0.981,1.258-1.924,1.924-2.859     c0.671-0.941,1.361-1.866,2.092-2.757c0.739-0.899,1.507-1.771,2.305-2.614c0.792-0.841,1.612-1.654,2.459-2.438     c0.824-0.766,1.664-1.512,2.535-2.222c0.971-0.789,1.98-1.528,3.008-2.245c0.819-0.574,1.637-1.148,2.49-1.675     c1.293-0.794,2.635-1.51,3.998-2.189c0.647-0.324,1.28-0.673,1.941-0.971C117.656,235.072,119.67,234.316,121.725,233.689z      M64.414,179.733c6.712,0.278,23.937,2.769,43.9,28.788c1.493,1.941,3.034,4.099,4.676,6.479c0.508,0.744,1.012,1.45,1.523,2.225     c0.137,0.208,0.276,0.455,0.413,0.666c-0.494,0.167-0.945,0.428-1.435,0.606c-2.53,0.914-5.003,1.977-7.407,3.184     c-0.756,0.38-1.498,0.769-2.239,1.177c-5.719,3.124-10.962,7.049-15.571,11.656c-0.423,0.423-0.828,0.856-1.24,1.29     c-2.163,2.257-4.167,4.66-6.001,7.192c-0.12,0.167-0.257,0.317-0.375,0.485c-1.879,2.699-3.56,5.53-5.028,8.473     c-0.333,0.659-0.631,1.333-0.944,2.004c-0.471,1.015-1.008,1.992-1.43,3.035H56.631     C46.024,231.575,48.951,202.523,64.414,179.733z M490.54,281.15c-23.615,57.285-64.803,105.596-117.631,137.975h-23.053     c-4.713,0-8.533,3.82-8.533,8.533s3.82,8.533,8.533,8.533h17.067v9.5c-0.007,4.179-3.396,7.565-7.575,7.567H152.631     c-4.179-0.002-7.568-3.387-7.575-7.567v-9.5h102.4c4.713,0,8.533-3.82,8.533-8.533s-3.82-8.533-8.533-8.533H139.063     c-52.84-32.382-94.033-80.707-117.641-138.008l-2.892-7.058h32.658h442.258L490.54,281.15z" fill="#FFFFFF"/>
			<path d="M375.481,393.508L375.481,393.508c1.541-0.002,3.052-0.42,4.375-1.209c34.82-21.38,62.693-52.399,80.242-89.3     c1.194-2.805,0.801-6.033-1.031-8.469c-1.832-2.436-4.824-3.71-7.85-3.342c-3.026,0.368-5.625,2.323-6.819,5.127     c-16.015,33.596-41.435,61.823-73.175,81.258c-0.295,0.171-0.578,0.361-0.85,0.567l-0.033,0.025     c-2.933,2.207-4.124,6.043-2.957,9.524C368.548,391.171,371.811,393.514,375.481,393.508z" fill="#FFFFFF"/>
			<path d="M145.056,188.725c2.264,0.001,4.435-0.897,6.035-2.498s2.499-3.772,2.498-6.035c0.014-14.129,11.462-25.581,25.591-25.6     c4.713,0,8.533-3.82,8.533-8.533s-3.82-8.533-8.533-8.533c-23.551,0.028-42.634,19.116-42.658,42.667     c-0.001,2.264,0.897,4.435,2.498,6.035S142.793,188.726,145.056,188.725z" fill="#FFFFFF"/>
		</g>
	</g>
</g>
<g>
</g>
<g>
</g>
<g>
</g>
<g>
</g>
<g>
</g>
<g>
</g>
<g>
</g>
<g>
</g>
<g>
</g>
<g>
</g>
<g>
</g>
<g>
</g>
<g>
</g>
<g>
</g>
<g>
</g>
</svg>
