<?xml version="1.0" encoding="iso-8859-1"?>
<!-- Generator: Adobe Illustrator 19.0.0, SVG Export Plug-In . SVG Version: 6.00 Build 0)  -->
<svg xmlns="http://www.w3.org/2000/svg" xmlns:xlink="http://www.w3.org/1999/xlink" version="1.1" id="Layer_1" x="0px" y="0px" viewBox="0 0 511.999 511.999" style="enable-background:new 0 0 511.999 511.999;" xml:space="preserve" width="512px" height="512px">
<g>
	<g>
		<path d="M477.159,209.634c-22.373-19.971-52.396-37.151-84.553-48.389c-0.021-0.008-0.041-0.015-0.062-0.023    c-0.035-0.012-0.069-0.025-0.104-0.038c-14.841-5.176-30.09-9.081-45.385-11.658c-9.029-10.947-38.976-42.731-90.831-54.779    c-8.616-2.004-17.536,0.011-24.482,5.525c-6.989,5.55-10.997,13.847-10.997,22.765v41.181    c-48.704,21.435-87.315,56.393-108.074,77.857c-3.091-15.604-9.946-35.331-25.076-50.461    c-28.811-28.81-75.188-27.613-77.136-27.547c-5.686,0.189-10.251,4.754-10.438,10.44c-0.066,1.959-1.25,48.315,27.558,77.123    c7.147,7.147,15.338,12.389,23.679,16.243c-8.341,3.935-16.534,9.23-23.68,16.376c-28.807,28.819-27.622,75.174-27.557,77.133    c0.187,5.686,4.752,10.252,10.438,10.441c0.185,0.006,0.768,0.023,1.697,0.023c8.884,0,49.358-1.49,75.439-27.581    c15.257-15.257,22.098-35.435,25.148-51.334c15.226,15.715,40.028,38.66,71.384,58.28v37.75c0,9.261,4.259,17.745,11.685,23.275    c5.108,3.803,11.122,5.772,17.265,5.772c2.802,0,5.631-0.409,8.412-1.241c26.134-7.803,45.906-22.044,55.071-29.547    c8.83,1.294,17.628,1.958,26.221,1.958c29.499,0,59.016-4.962,87.729-14.746c0.019-0.006,0.038-0.013,0.057-0.019    c66.961-22.822,121.429-70.785,121.429-106.936C512.002,250.231,499.628,229.69,477.159,209.634z M42.858,236.355    c-14.78-14.78-19.297-36.961-20.664-50.15c13.164,1.337,35.267,5.824,50.128,20.685c14.767,14.766,19.287,36.531,20.66,49.454    C80.006,255.259,57.679,251.176,42.858,236.355z M72.321,328.99c-14.767,14.772-36.927,19.292-50.123,20.661    c1.373-13.201,5.896-35.357,20.66-50.128c14.828-14.828,37.109-19.32,50.151-20.668C91.673,292.015,87.187,314.124,72.321,328.99z     M242.35,123.036c0-2.289,1.03-4.42,2.828-5.847c1.03-0.819,3.202-2.088,6.155-1.401c27.276,6.338,47.721,19.118,61.262,30.172    c-3.279-0.124-6.551-0.187-9.81-0.187c-19.714,0-39.981,3.408-60.435,10.135V123.036z M215.308,396.067    c-2.28,0.682-4.684,0.26-6.589-1.159c-1.115-0.83-2.986-2.706-2.986-5.947v-25.423c14.267,7.367,28.51,13.167,42.625,17.377    C239.693,386.346,228.44,392.146,215.308,396.067z M302.786,367.573c-9,0-18.284-0.822-27.583-2.441    c-24.301-4.253-49.44-14.088-74.718-29.237c-39.823-23.869-69.808-54.927-81.877-68.423c15.37-17.194,59.812-62.867,116.99-86.085    c0.069-0.028,0.139-0.053,0.207-0.082c22.825-9.241,45.359-13.929,66.98-13.929c12.163,0,24.524,0.943,36.744,2.805    c9.328,1.418,18.652,3.392,27.879,5.878c-22.668,24.062-37.057,59.506-37.057,93.834c0,31.343,13.892,65.168,35.752,89.347    C345.207,364.767,323.982,367.573,302.786,367.573z M389.282,351.949c-22.513-20.292-37.328-52.514-37.328-82.054    c0-32.312,15.771-66.911,38.876-86.318c61.838,23.127,99.569,63.92,99.569,83.897C490.399,287.79,452.086,328.935,389.282,351.949    z" fill="#FFFFFF"/>
	</g>
</g>
<g>
	<g>
		<path d="M429.154,254.253c-5.965,0-10.802,4.837-10.802,10.802v4.839c0,5.965,4.837,10.802,10.802,10.802    c5.965,0,10.802-4.837,10.802-10.802v-4.839C439.955,259.09,435.118,254.253,429.154,254.253z" fill="#FFFFFF"/>
	</g>
</g>
<g>
	<g>
		<path d="M317.298,194.865c-4.326-4.109-11.162-3.931-15.27,0.394c-1.036,1.091-2.058,2.234-3.04,3.399    c-3.844,4.563-3.262,11.377,1.302,15.22c2.026,1.708,4.496,2.542,6.954,2.542c3.075,0,6.13-1.307,8.265-3.843    c0.707-0.839,1.442-1.661,2.183-2.442C321.801,205.809,321.624,198.973,317.298,194.865z" fill="#FFFFFF"/>
	</g>
</g>
<g>
	<g>
		<path d="M316.052,327.016c-12.007-13.824-18.893-34.793-18.893-57.531c0-12.73,2.228-25.254,6.446-36.22    c2.141-5.568-0.637-11.817-6.204-13.959c-5.569-2.142-11.818,0.636-13.96,6.204c-5.158,13.414-7.885,28.62-7.885,43.973    c0,27.868,8.815,54.001,24.186,71.698c2.137,2.46,5.139,3.719,8.159,3.719c2.511,0,5.034-0.871,7.079-2.646    C319.483,338.341,319.964,331.519,316.052,327.016z" fill="#FFFFFF"/>
	</g>
</g>
<g>
</g>
<g>
</g>
<g>
</g>
<g>
</g>
<g>
</g>
<g>
</g>
<g>
</g>
<g>
</g>
<g>
</g>
<g>
</g>
<g>
</g>
<g>
</g>
<g>
</g>
<g>
</g>
<g>
</g>
</svg>
