<?xml version="1.0" encoding="iso-8859-1"?>
<!-- Generator: Adobe Illustrator 16.0.0, SVG Export Plug-In . SVG Version: 6.00 Build 0)  -->
<!DOCTYPE svg PUBLIC "-//W3C//DTD SVG 1.1//EN" "http://www.w3.org/Graphics/SVG/1.1/DTD/svg11.dtd">
<svg xmlns="http://www.w3.org/2000/svg" xmlns:xlink="http://www.w3.org/1999/xlink" version="1.1" id="Capa_1" x="0px" y="0px" width="512px" height="512px" viewBox="0 0 22.029 22.03" style="enable-background:new 0 0 22.029 22.03;" xml:space="preserve">
<g>
	<path d="M4.119,13.985c0.706,0.144,1.388,0.352,2.101,0.251c0.751-0.104,1.328-0.115,1.788,0.716   c0.318,0.579,1.019,0.801,1.25-0.21c0.195-0.875,0.8-1.045,1.569-1.15c1.566-0.213,3.3-0.325,4.388-1.546   c1.608-1.808,3.39-2.791,5.839-2.432c0.345,0.05,0.963,0.074,0.977-0.459c0.016-0.497-0.403-0.732-0.908-1.01   c-1.188-0.65-2.097,0.083-2.976,0.446c-1.09,0.451-2.242-0.353-3.357,0.436c-0.125-0.967,0.013-2.066-1.158-2.14   c-1.637-0.1-3.345-0.403-4.859,0.558C7.69,8.13,6.61,7.872,5.79,7.178C4.592,6.166,3.679,6.601,2.704,7.381   c-0.63,0.505-1.169,1.107-2.149,0.759c-0.743-0.266-0.551,0.38-0.473,0.719C0.626,11.191,1.287,13.414,4.119,13.985z" fill="#FFFFFF"/>
</g>
<g>
</g>
<g>
</g>
<g>
</g>
<g>
</g>
<g>
</g>
<g>
</g>
<g>
</g>
<g>
</g>
<g>
</g>
<g>
</g>
<g>
</g>
<g>
</g>
<g>
</g>
<g>
</g>
<g>
</g>
</svg>
