<?xml version="1.0" encoding="iso-8859-1"?>
<!-- Generator: Adobe Illustrator 19.0.0, SVG Export Plug-In . SVG Version: 6.00 Build 0)  -->
<svg xmlns="http://www.w3.org/2000/svg" xmlns:xlink="http://www.w3.org/1999/xlink" version="1.1" id="Capa_1" x="0px" y="0px" viewBox="0 0 512.002 512.002" style="enable-background:new 0 0 512.002 512.002;" xml:space="preserve" width="512px" height="512px">
<g>
	<g>
		<path d="M446.665,2.467c-11.395-5.735-25.328-1.128-31.062,10.265L399.092,45.54c-1.864,3.703-0.372,8.218,3.332,10.081    c3.704,1.867,8.218,0.373,10.082-3.332l16.51-32.807c2.013-3.998,6.903-5.612,10.898-3.602c3.997,2.012,5.613,6.901,3.602,10.899    l-61.18,121.569c-4.725-2.597-9.724-4.752-14.938-6.426l24.577-48.835c1.864-3.703,0.372-8.218-3.332-10.082    c-3.703-1.865-8.217-0.373-10.082,3.332l-26.287,52.234c-3.567-0.457-7.194-0.718-10.884-0.718c-2.022,0-4.025,0.078-6.012,0.217    c0.004-0.34,0.026-0.677,0.026-1.018c0-47.032-38.263-85.294-85.295-85.294c-35.435,0-65.859,21.736-78.723,52.565    c-51.991,4.777-92.847,48.623-92.847,101.84c0,15.044,3.278,29.334,9.139,42.21h-21.35c-3.698,0-7.295,1.525-9.868,4.184    c-2.604,2.692-3.97,6.231-3.847,9.968c1.657,50.132,22.107,97.33,57.581,132.897c2.929,2.938,7.683,2.943,10.619,0.015    c2.936-2.928,2.942-7.682,0.014-10.618c-12.808-12.842-23.486-27.328-31.846-42.971c9.34,0.568,14.157,4.52,20.126,9.435    c6.996,5.762,15.705,12.934,32.021,12.934c16.322,0,25.033-7.171,32.033-12.933c6.457-5.316,11.556-9.514,22.502-9.514    c10.928,0,16.024,4.196,22.474,9.509c6.999,5.764,15.71,12.938,32.036,12.938c16.326,0,25.036-7.174,32.034-12.938    c6.451-5.313,11.546-9.509,22.475-9.509c10.937,0,16.035,4.197,22.489,9.512c6.999,5.763,15.711,12.935,32.035,12.935    c16.317,0,25.024-7.172,32.021-12.934c5.951-4.9,10.759-8.843,20.045-9.429c-8.837,16.527-20.277,31.755-34.087,45.142    c-34.242,33.193-79.372,51.473-127.074,51.473c-32.788,0-64.939-8.787-92.979-25.412c-3.567-2.116-8.172-0.937-10.288,2.629    c-2.116,3.567-0.938,8.173,2.629,10.288c12.35,7.322,25.443,13.214,39.01,17.658c-6.791,5.404-11.156,13.732-11.156,23.065v32.791    c0,6.9,5.614,12.514,12.514,12.514h120.543c6.9,0,12.514-5.614,12.514-12.514v-32.791c0-9.307-4.341-17.611-11.1-23.014    c28.137-9.219,54.03-24.763,75.84-45.905c36.975-35.842,58.272-83.875,59.971-135.253c0.124-3.736-1.242-7.275-3.846-9.967    c-2.573-2.66-6.17-4.185-9.869-4.185h-11.058c2.483-7.977,3.853-16.44,3.853-25.224c0-26.782-12.418-50.707-31.786-66.357    L456.93,33.531C462.664,22.136,458.059,8.201,446.665,2.467z M307.88,496.984L307.88,496.984H192.342v-30.288    c0-7.97,6.485-14.455,14.455-14.455h86.628c7.97,0,14.455,6.485,14.455,14.455V496.984z M250.11,66.774    c38.752,0,70.279,31.526,70.279,70.278c0,1.156-0.038,2.304-0.095,3.447c-17.61,4.502-33.038,14.506-44.356,28.058    c-14.169-35.715-47.899-61.614-87.898-64.417C199.862,81.933,223.245,66.774,250.11,66.774z M180.82,118.899    c48.117,0,87.263,39.146,87.263,87.263c0,15.304-3.971,29.693-10.921,42.21h-152.68c-6.951-12.517-10.924-26.905-10.924-42.21    C93.557,158.045,132.703,118.899,180.82,118.899z M432.547,263.388c-0.895,22.165-5.747,43.636-14.174,63.582    c-1.506-0.134-3.048-0.217-4.659-0.217c-16.326,0-25.036,7.174-32.034,12.938c-6.451,5.313-11.546,9.509-22.475,9.509    c-10.937,0-16.035-4.197-22.489-9.512c-6.999-5.763-15.711-12.935-32.034-12.935c-16.317,0-25.024,7.172-32.021,12.934    c-6.453,5.315-11.55,9.513-22.489,9.513s-16.036-4.198-22.489-9.513c-6.996-5.762-15.705-12.934-32.021-12.934    c-16.331,0-25.044,7.173-32.047,12.937c-6.455,5.313-11.552,9.51-22.489,9.51c-10.929,0-16.024-4.196-22.475-9.509    c-6.998-5.764-15.709-12.938-32.035-12.938c-1.617,0-3.191,0.088-4.734,0.228c-8.445-19.975-13.317-41.462-14.211-63.593H432.547z     M411.669,223.147c0,8.888-1.666,17.391-4.69,25.224h-133.01c5.859-12.876,9.133-27.166,9.133-42.21    c0-6.604-0.637-13.062-1.839-19.321c12.326-20.341,34.658-33.972,60.13-33.972C380.142,152.869,411.669,184.395,411.669,223.147z" fill="#FFFFFF"/>
	</g>
</g>
<g>
</g>
<g>
</g>
<g>
</g>
<g>
</g>
<g>
</g>
<g>
</g>
<g>
</g>
<g>
</g>
<g>
</g>
<g>
</g>
<g>
</g>
<g>
</g>
<g>
</g>
<g>
</g>
<g>
</g>
</svg>
