<?xml version="1.0" encoding="iso-8859-1"?>
<!-- Generator: Adobe Illustrator 19.0.0, SVG Export Plug-In . SVG Version: 6.00 Build 0)  -->
<svg xmlns="http://www.w3.org/2000/svg" xmlns:xlink="http://www.w3.org/1999/xlink" version="1.1" id="Layer_1" x="0px" y="0px" viewBox="0 0 511.998 511.998" style="enable-background:new 0 0 511.998 511.998;" xml:space="preserve" width="512px" height="512px">
<g>
	<g>
		<path d="M476.887,164.197l-9.281-38.35c-0.787-3.25-3.407-5.734-6.694-6.347c-3.284-0.615-6.626,0.758-8.532,3.506l-14.119,20.352    c-1.744-0.73-3.494-1.424-5.248-2.115c-14.914-24.41-41.824-40.167-71.414-40.167c-12.57,0-24.768,2.782-35.914,8.104    c-1.328-7.781-3.737-15.485-7.32-22.893l-10.424-21.55c-2.041-4.221-7.118-5.987-11.336-3.946l-21.565,10.425    c-0.165,0.08-0.327,0.168-0.491,0.248c-6.858-8.78-15.434-16.235-25.147-21.805l-20.769-11.907    c-4.068-2.332-9.252-0.927-11.584,3.139l-11.923,20.776c-5.013,8.756-8.381,18.113-10.099,27.879    c-15.252,4.138-28.535,13.579-37.502,26.873c-11.935-6.488-25.574-10.15-39.971-10.15c-9.072,0-17.997,1.446-26.529,4.3    c-4.446,1.486-6.845,6.296-5.358,10.742c1.486,4.447,6.299,6.843,10.742,5.358c6.793-2.272,13.908-3.423,21.146-3.423    c30.253,0,56.358,20.203,64.233,48.839c-1.726,1.166-3.354,2.497-4.861,4.003c-2.748,2.748-4.902,5.867-6.47,9.197    c-10.319-2.274-27.486-2.723-42.765,12.557c-3.315,3.315-3.315,8.69,0,12.004c1.657,1.657,3.83,2.487,6.002,2.487    s4.345-0.828,6.002-2.487c10.045-10.045,21.422-9.354,27.749-7.849c0.354,4.332,1.555,8.607,3.619,12.546    c-19.396,4.785-32.272,15.414-32.276,28.383v10.09c-5.51,1.86-11.221,2.981-17.072,3.339    c-5.092-18.611-22.293-32.263-42.18-32.263c-5.869,0-11.602,1.192-16.935,3.437c-7.562-11.022-11.678-24.158-11.678-37.653    c0-19.96,8.841-38.702,24.253-51.421c3.616-2.984,4.128-8.334,1.144-11.95c-2.984-3.616-8.334-4.129-11.95-1.144    c-19.335,15.956-30.425,39.471-30.425,64.515c0,16.884,5.139,33.324,14.58,47.137c-5.054,5.081-8.756,11.295-10.816,18.112    c-11.014-9.27-20.73-21.488-20.73-35.751c0-8.072,3.137-16.191,9.326-24.13c2.882-3.698,2.221-9.032-1.477-11.914    c-3.699-2.881-9.031-2.221-11.914,1.477c-8.558,10.979-12.901,22.594-12.912,34.522c0,0.015-0.002,0.028-0.002,0.042    c0,68.38,26.629,132.666,74.98,181.018c48.352,48.351,112.638,74.98,181.018,74.98c69.726,0,134.904-27.533,183.528-77.526    c3.269-3.36,3.194-8.734-0.166-12.003c-3.36-3.268-8.734-3.194-12.003,0.166c-45.4,46.678-106.256,72.386-171.357,72.386    c-116.955,0-214.549-84.44-235.048-195.555c5.306,5.177,11.589,10.159,18.822,14.9c15.531,10.176,35.062,19.098,58.049,26.512    c14.767,4.767,30.86,8.862,47.824,12.171c30.24,5.919,62.715,9.294,96.514,10.026c4.396,0.098,9.052,0.149,13.841,0.149    c7.311,0,14.657-0.127,21.84-0.377c0.031,0,0.062-0.001,0.093-0.002c5.786-0.206,11.093-0.462,16.212-0.78    c9.634-0.582,19.417-1.416,29.078-2.48c17.142-1.894,33.773-4.518,49.433-7.803c48.851-10.235,87.525-26.288,111.845-46.422    c2.366-1.96,4.573-3.958,6.637-5.972c-7.039,38.79-23.577,74.987-48.851,106.383c-2.939,3.652-2.362,8.996,1.289,11.935    c1.569,1.263,3.45,1.877,5.317,1.877c2.481,0,4.94-1.083,6.618-3.166c36.359-45.166,56.409-102.015,56.479-160.108    c-0.001-0.104,0.006-0.205,0.006-0.307C511.998,199.561,499.87,180.535,476.887,164.197z M98.542,286.605    C80.781,280.59,65.46,273.652,52.87,265.93c0.578-8.297,4.963-15.85,11.985-20.472c4.362-2.869,9.438-4.386,14.679-4.386    c13.824,0,25.53,10.777,26.649,24.551c0.057,0.677,0.084,1.391,0.084,2.183C106.267,274.976,103.489,281.629,98.542,286.605z     M138.786,297.655h-0.001c-7.871-1.724-15.503-3.624-22.85-5.687c3.695-5.582,6.095-11.979,6.952-18.677    c5.401-0.338,10.713-1.177,15.899-2.54V297.655z M326.798,127.876c10.455-6.432,22.401-9.823,34.803-9.823    c28.478,0,53.844,18.306,63.011,44.966l-6.107,8.806L403.867,153.3c-2.072-2.622-5.492-3.785-8.732-2.969    c-2.182,0.549-3.994,1.939-5.134,3.785l-0.017-0.011l-50.478,81.81c-5.202-3.783-11.272-5.845-17.422-6.192    c0.695-3.459,0.843-7.055,0.383-10.677c-0.59-4.651-4.84-7.95-9.49-7.351c-4.651,0.591-7.942,4.84-7.351,9.49    c0.624,4.909-1.021,9.727-4.514,13.22c-6.179,6.178-16.232,6.178-22.409,0c-2.994-2.994-4.642-6.972-4.642-11.204    s1.648-8.211,4.642-11.204c4.514-4.515,11.253-5.881,17.172-3.482c4.345,1.762,9.295-0.333,11.057-4.677    c1.762-4.345-0.332-9.295-4.677-11.057c-2.285-0.926-4.629-1.58-6.991-1.973C314.453,175.101,325.626,151.961,326.798,127.876z     M282.431,86.501l13.92-6.731l6.728,13.909c13.834,28.605,6.128,62.694-17.145,82.81c-1.63-4.035-4.066-7.742-7.236-10.912    c-0.119-0.119-0.243-0.229-0.363-0.346c0.645-3.742,0.978-7.554,0.978-11.389c0-18.999-8.003-36.152-20.799-48.304    C264.931,97.534,273.087,91.023,282.431,86.501z M271.336,188.785c0,4.233-1.649,8.211-4.642,11.205    c-6.178,6.178-16.231,6.179-22.409,0c-6.178-6.179-6.178-16.232,0-22.409c3.089-3.089,7.146-4.634,11.205-4.634    c4.058,0,8.115,1.545,11.204,4.634C269.688,180.575,271.336,184.553,271.336,188.785z M219.853,70.111l7.695-13.409l13.408,7.686    c7.394,4.24,13.782,9.634,19.075,16.085c-5.672,4.352-10.78,9.393-15.207,15.014c-9.484-5.246-20.371-8.251-31.946-8.284    C214.413,81.27,216.74,75.547,219.853,70.111z M171.548,125.998c9.159-13.607,24.372-21.821,41.133-21.821    c27.379,0,49.654,22.28,49.654,49.665c0,0.951-0.036,1.897-0.089,2.841c-10.486-2.19-21.843,0.769-29.967,8.893    c-3.491,3.489-6.021,7.58-7.608,11.939c-0.43-0.483-0.872-0.961-1.336-1.425c-6.814-6.814-16.177-10.17-25.486-9.527    C193.183,150.389,183.879,136.411,171.548,125.998z M211.333,210.508c-0.839,0.838-1.759,1.557-2.736,2.18    c-4.384-0.572-8.995-0.879-13.787-0.879c-1.443,0-2.864,0.036-4.272,0.091c-0.553-0.422-1.096-0.875-1.609-1.39    c-6.179-6.18-6.179-16.234,0-22.414c1.608-1.608,3.47-2.814,5.581-3.602c5.821-2.213,12.423-0.798,16.823,3.602    C217.511,194.275,217.511,204.329,211.333,210.508z M223.988,261.625c2.011,3.517,6.155,5.043,9.871,3.894v43.68    c-27.188-0.971-53.381-3.717-78.097-8.182v-35.368c9.942,5.261,23.567,8.411,39.048,8.411c5.209,0,10.357-0.37,15.304-1.098    c4.638-0.684,7.844-4.997,7.161-9.635c-0.684-4.638-4.991-7.843-9.635-7.161c-4.129,0.609-8.446,0.917-12.829,0.917    c-24.224,0-39.048-9.16-39.048-14.148c0-4.988,14.826-14.148,39.05-14.148s39.048,9.16,39.048,14.148    c0,1.985-2.636,4.775-6.716,7.108C223.073,252.369,221.661,257.555,223.988,261.625z M249.968,237.252    c-2.355-7.695-9.452-14.249-19.71-18.776c5.336-1.491,11.303-0.152,15.49,4.035C249.739,226.506,251.135,232.116,249.968,237.252z     M266.573,309.525c-3.518,0.06-7.05,0.092-10.575,0.092c-1.744,0-3.461-0.009-5.161-0.023v-14.086    c4.779,3.177,10.302,5.03,16.112,5.379C266.445,303.728,266.312,306.63,266.573,309.525z M268.958,283.978    c-4.232,0-8.212-1.648-11.204-4.642c-2.993-2.994-4.642-6.972-4.642-11.204c0-4.233,1.649-8.211,4.642-11.205    c3.089-3.089,7.146-4.634,11.204-4.634c4.058,0,8.115,1.545,11.204,4.634c2.993,2.994,4.642,6.972,4.642,11.205    c0,4.232-1.648,8.211-4.642,11.204C277.168,282.328,273.19,283.978,268.958,283.978z M293.106,308.49    c-3.072,0.19-6.229,0.355-9.504,0.503c-0.749-4.882,0.819-9.938,4.463-13.584c6.181-6.174,16.24-6.174,22.417-0.003    c3.08,3.08,4.691,7.151,4.647,11.323C307.787,307.455,300.407,308.048,293.106,308.49z M320.215,278.318    c-4.232,0-8.211-1.648-11.204-4.642s-4.642-6.972-4.642-11.204c0-4.233,1.649-8.212,4.642-11.205    c3.089-3.089,7.146-4.634,11.204-4.634c4.058,0,8.115,1.545,11.204,4.634c2.993,2.994,4.642,6.972,4.642,11.205    c0,4.232-1.648,8.211-4.642,11.204C328.426,276.669,324.447,278.318,320.215,278.318z M363.564,299.672    c-10.165,1.999-20.732,3.707-31.559,5.119c-0.216-3.721-1.058-7.386-2.49-10.831c5.202-1.528,9.97-4.338,13.91-8.279    c6.2-6.199,9.614-14.442,9.614-23.21c0-4.286-0.822-8.446-2.38-12.304l30.427-49.314L363.564,299.672z M480.102,249.789    l-20.526-25.982c-2.908-3.678-8.247-4.306-11.924-1.398c-3.678,2.905-4.304,8.244-1.398,11.923l20.828,26.364    c-20.097,14.281-49.853,26.474-85.583,35.067l20.765-117.109l29.326,37.116c2.905,3.679,8.244,4.306,11.923,1.398    c3.679-2.905,4.304-8.244,1.398-11.923l-15.405-19.497l18.513-26.691c0.081-0.102,0.16-0.211,0.235-0.319l7.298-10.519    l24.576,101.546C480.12,249.772,480.112,249.781,480.102,249.789z M492.976,230.672l-9.111-37.647    c6.471,7.573,11.155,16.467,11.155,26.35C495.02,223.145,494.329,226.916,492.976,230.672z" fill="#FFFFFF"/>
	</g>
</g>
<g>
	<g>
		<path d="M357.782,124.242c-3.117,1.965-4.633,5.878-3.638,9.432c1.019,3.638,4.397,6.219,8.181,6.219    c4.246,0,7.887-3.251,8.42-7.449C371.633,125.463,363.703,120.512,357.782,124.242z" fill="#FFFFFF"/>
	</g>
</g>
<g>
</g>
<g>
</g>
<g>
</g>
<g>
</g>
<g>
</g>
<g>
</g>
<g>
</g>
<g>
</g>
<g>
</g>
<g>
</g>
<g>
</g>
<g>
</g>
<g>
</g>
<g>
</g>
<g>
</g>
</svg>
