<?xml version="1.0" encoding="iso-8859-1"?>
<!-- Generator: Adobe Illustrator 19.0.0, SVG Export Plug-In . SVG Version: 6.00 Build 0)  -->
<svg xmlns="http://www.w3.org/2000/svg" xmlns:xlink="http://www.w3.org/1999/xlink" version="1.1" id="Capa_1" x="0px" y="0px" viewBox="0 0 511 511" style="enable-background:new 0 0 511 511;" xml:space="preserve" width="512px" height="512px">
<g>
	<path d="M493.31,296.758l-36.384-41.582l5.268-7.902c6.654-9.982,4.725-23.344-4.489-31.081   c-16.463-13.825-51.329-38.058-101.748-47.224c0.221-9.307-5.073-17.942-13.699-21.957c-26.311-12.246-56.311-18.719-86.758-18.719   s-60.447,6.473-86.758,18.719c-8.625,4.015-13.919,12.65-13.698,21.957c-50.419,9.166-85.285,33.398-101.748,47.224   c-9.213,7.737-11.143,21.099-4.489,31.081l5.268,7.902L17.69,296.758C6.283,309.796,0,326.517,0,343.841   c0,13.16,6.576,25.316,17.591,32.517c6.436,4.207,13.812,6.348,21.237,6.348c5.284,0,10.594-1.084,15.605-3.279l64.676-28.325   c4.236,3.616,9.612,5.61,15.181,5.61c2.157,0,4.343-0.298,6.5-0.914l40.213-11.49c4.283,4.324,10.203,6.987,16.688,6.987h115.617   c6.484,0,12.405-2.662,16.688-6.987l40.213,11.49c2.158,0.616,4.342,0.914,6.5,0.914c5.568,0,10.945-1.994,15.181-5.61   l64.676,28.325c5.012,2.195,10.321,3.279,15.605,3.279c7.425,0,14.802-2.141,21.237-6.348C504.424,369.157,511,357.001,511,343.841   C511,326.517,504.717,309.796,493.31,296.758z M48.416,365.687c-7.51,3.29-15.754,2.603-22.617-1.884   C18.936,359.317,15,352.041,15,343.841c0-13.689,4.965-26.903,13.979-37.206l33.714-38.531l47.126,70.689L48.416,365.687z    M136.669,341.374c-3.568,1.02-7.35-0.37-9.408-3.458l-65.975-98.962c-2.408-3.613-1.697-8.459,1.655-11.274   c15.207-12.77,47.301-35.093,93.776-43.774L174.359,330.6c0,0.002,0.001,0.004,0.001,0.005L136.669,341.374z M313.309,336.294   H197.691c-4.298,0-7.926-3.218-8.439-7.485l-19.165-159.362c-0.443-3.69,1.56-7.241,4.984-8.835   c24.341-11.33,52.153-17.318,80.428-17.318s56.087,5.989,80.428,17.318c3.425,1.594,5.428,5.145,4.984,8.835l-19.165,159.362   C321.235,333.076,317.606,336.294,313.309,336.294z M374.331,341.374l-37.691-10.769c0-0.002,0.001-0.004,0.001-0.005   l17.641-146.694c46.476,8.682,78.57,31.004,93.776,43.774c3.352,2.815,4.063,7.661,1.655,11.274l-65.975,98.962   C381.68,341.004,377.899,342.393,374.331,341.374z M485.201,363.803c-6.862,4.486-15.107,5.173-22.617,1.884l-61.404-26.892   l47.126-70.689l33.714,38.531C491.035,316.939,496,330.152,496,343.841C496,352.041,492.064,359.317,485.201,363.803z" fill="#FFFFFF"/>
	<path d="M317.803,171.421c-6.607-2.494-13.521-4.605-20.55-6.277c-4.03-0.958-8.074,1.531-9.031,5.562   c-0.958,4.03,1.532,8.073,5.562,9.031c4.477,1.064,8.9,2.324,13.209,3.76L300.33,238.9c-0.495,4.113,2.438,7.847,6.551,8.342   c0.304,0.037,0.606,0.054,0.905,0.054c3.742,0,6.979-2.797,7.437-6.605l7.379-61.357   C323.013,175.906,321.033,172.64,317.803,171.421z" fill="#FFFFFF"/>
	<path d="M263.839,160.484c-5.53-0.251-11.154-0.251-16.682,0c-4.138,0.188-7.34,3.695-7.152,7.833   c0.188,4.138,3.702,7.339,7.833,7.152c5.077-0.23,10.241-0.231,15.321,0c0.116,0.005,0.231,0.008,0.346,0.008   c3.985,0,7.304-3.138,7.486-7.16C271.179,164.178,267.978,160.672,263.839,160.484z" fill="#FFFFFF"/>
	<path d="M421.023,245.312c2.364,0,4.691-1.115,6.15-3.2c2.375-3.393,1.55-8.07-1.843-10.445   c-12.04-8.428-25.182-15.479-39.063-20.956c-3.853-1.52-8.209,0.371-9.729,4.224s0.371,8.209,4.224,9.729   c12.789,5.046,24.89,11.536,35.966,19.291C418.037,244.872,419.538,245.312,421.023,245.312z" fill="#FFFFFF"/>
	<path d="M130.586,208.512c-16.042,5.73-31.154,13.521-44.917,23.155c-3.394,2.375-4.219,7.052-1.843,10.445   c1.459,2.084,3.786,3.2,6.15,3.2c1.485,0,2.986-0.44,4.294-1.356c12.666-8.866,26.582-16.038,41.361-21.318   c3.901-1.394,5.934-5.685,4.54-9.586C138.779,209.151,134.485,207.12,130.586,208.512z" fill="#FFFFFF"/>
	<path d="M469.228,317.831l-12.642-14.448c-2.728-3.118-7.466-3.433-10.583-0.706c-3.117,2.728-3.433,7.466-0.706,10.583   l12.642,14.448c1.034,1.183,1.958,2.469,2.745,3.824c1.392,2.397,3.907,3.735,6.493,3.735c1.279,0,2.575-0.327,3.76-1.016   c3.582-2.08,4.799-6.67,2.719-10.252C472.385,321.813,470.896,319.737,469.228,317.831z" fill="#FFFFFF"/>
	<path d="M64.998,302.677c-3.117-2.727-7.854-2.412-10.583,0.706L41.774,317.83c-4.025,4.6-6.966,10.157-8.503,16.072   c-1.042,4.009,1.363,8.104,5.372,9.146c0.633,0.165,1.267,0.243,1.892,0.243c3.333,0,6.376-2.239,7.253-5.615   c0.953-3.667,2.777-7.114,5.274-9.968l12.641-14.448C68.431,310.143,68.115,305.404,64.998,302.677z" fill="#FFFFFF"/>
</g>
<g>
</g>
<g>
</g>
<g>
</g>
<g>
</g>
<g>
</g>
<g>
</g>
<g>
</g>
<g>
</g>
<g>
</g>
<g>
</g>
<g>
</g>
<g>
</g>
<g>
</g>
<g>
</g>
<g>
</g>
</svg>
