<?xml version="1.0" encoding="iso-8859-1"?>
<!-- Generator: Adobe Illustrator 18.1.1, SVG Export Plug-In . SVG Version: 6.00 Build 0)  -->
<svg xmlns="http://www.w3.org/2000/svg" xmlns:xlink="http://www.w3.org/1999/xlink" version="1.1" id="Capa_1" x="0px" y="0px" viewBox="0 0 270.125 270.125" style="enable-background:new 0 0 270.125 270.125;" xml:space="preserve" width="512px" height="512px">
<path color-rendering="auto" image-rendering="auto" shape-rendering="auto" color-interpolation="sRGB" d="M33.892,70.088  c-19.537,1.555-35.578,18.669-33.75,38.771c1.569,17.255,16.823,31.414,34.676,29.519c14.97-1.588,27.251-14.994,25.264-30.604  c-1.615-12.681-13.199-23.104-26.578-20.975c-10.387,1.653-18.976,11.473-16.606,22.643c0.859,4.047,3.183,7.559,6.492,9.941  c3.309,2.382,7.922,3.55,12.416,2.119c2.944-0.937,5.294-2.818,6.887-5.521c1.593-2.704,2.11-6.917-0.02-10.262  c-1.717-2.698-3.293-3.232-5.766-3.648c-1.236-0.208-2.965-0.285-4.805,0.912c-1.84,1.197-2.815,3.672-2.815,5.422  c-0.017,1.336,0.5,2.623,1.438,3.574c-0.491-0.141-0.978-0.339-1.494-0.711c-1.205-0.868-2.243-2.443-2.553-3.902  c-1.059-4.992,3.23-9.867,8.395-10.69c7.348-1.17,14.144,4.951,15.088,12.359c1.231,9.671-6.743,18.372-16.4,19.396  c-11.975,1.271-22.577-8.57-23.66-20.48C8.803,93.684,20.517,81.184,34.685,80.057c0.126-0.01,0.253-0.016,0.379-0.023h200  c0.126,0.01,0.252,0.014,0.377,0.023c14.168,1.127,25.882,13.627,24.584,27.896c-1.083,11.911-11.685,21.751-23.66,20.48  c-9.658-1.025-17.632-9.726-16.4-19.396c0.943-7.409,7.739-13.529,15.088-12.359c5.165,0.822,9.454,5.697,8.394,10.69  c-0.31,1.459-1.348,3.035-2.553,3.902c-0.516,0.371-1,0.57-1.49,0.711c0.936-0.952,1.452-2.239,1.434-3.574  c0-1.75-0.973-4.225-2.812-5.422c-1.84-1.197-3.568-1.12-4.805-0.912c-2.473,0.416-4.05,0.951-5.768,3.648  c-2.129,3.344-1.611,7.558-0.018,10.262c1.593,2.704,3.943,4.585,6.887,5.521c4.494,1.43,9.105,0.263,12.414-2.119  s5.633-5.894,6.492-9.941c2.37-11.169-6.219-20.989-16.605-22.643c-13.379-2.129-24.964,8.294-26.578,20.975  c-1.988,15.61,10.296,29.015,25.266,30.604c17.852,1.894,33.105-12.264,34.674-29.52c1.828-20.102-14.213-37.217-33.75-38.771  c-0.406-0.062-0.781-0.037-1.17-0.045h-200c-0.389-0.024-0.8,0.021-1.172,0.047L33.892,70.088z M15.063,20.063c-2.761,0-5,2.239-5,5  v10c0,1.326,0.527,2.598,1.465,3.535l20,20c0.938,0.938,2.209,1.465,3.535,1.465h200c1.326,0,2.598-0.527,3.535-1.465l20-20  c0.938-0.938,1.465-2.209,1.465-3.535v-10c0-2.761-2.239-5-5-5C255.063,20.063,15.063,20.063,15.063,20.063z M20.063,30.063h230  v2.928l-17.072,17.072H37.133l-17.07-17.072V30.063z M75.063,100.063c-2.761,0-5,2.239-5,5v140c0.001,2.762,2.24,5,5.002,4.999  c0.987,0,1.951-0.292,2.772-0.839l28.441-18.963c1.366-0.91,2.198-2.433,2.227-4.074l1.557-91.039c0-0.028,0-0.056,0-0.084  c0-3.28,10.058-3.373,10-0.09c0,0.03,0,0.06,0,0.09v80c0.001,2.762,2.24,5,5.002,4.999c0.987,0,1.951-0.292,2.772-0.839l30-20  c1.391-0.927,2.226-2.488,2.227-4.16v-60c0-3.339,10-3.339,10,0v50c0.001,2.762,2.241,5,5.003,4.998c0.775,0,1.54-0.181,2.234-0.528  l20-10c1.693-0.847,2.763-2.577,2.764-4.471v-70c0-2.761-2.239-5-5-5h-120H75.063z M80.063,110.063h110v61.908l-10,5v-41.908  c0-16.668-30-16.668-30,0v57.324l-20,13.334v-70.658v0.088c0.297-16.724-29.998-16.815-29.998-0.088v-0.086l-1.512,88.418  l-18.488,12.326V110.063L80.063,110.063z" fill="#ffffff"/>
<g>
</g>
<g>
</g>
<g>
</g>
<g>
</g>
<g>
</g>
<g>
</g>
<g>
</g>
<g>
</g>
<g>
</g>
<g>
</g>
<g>
</g>
<g>
</g>
<g>
</g>
<g>
</g>
<g>
</g>
</svg>
